<mxfile host="app.diagrams.net" modified="2021-12-25T11:23:23.447Z" agent="5.0 (Windows NT 10.0; Win64; x64) AppleWebKit/537.36 (KHTML, like Gecko) Chrome/96.0.4664.110 Safari/537.36" etag="ryrfCR4sSLt3bPNwjW5L" version="15.3.0" type="github">
  <diagram id="izZ6FswuK_M_A2pVk5Ap" name="Page-1">
    <mxGraphModel dx="1038" dy="547" grid="1" gridSize="10" guides="1" tooltips="1" connect="1" arrows="1" fold="1" page="1" pageScale="1" pageWidth="827" pageHeight="1169" math="0" shadow="0">
      <root>
        <mxCell id="0" />
        <mxCell id="1" parent="0" />
        <mxCell id="jEEWUr5B4z5rgXsGciDL-1" value="" style="rounded=0;whiteSpace=wrap;html=1;" vertex="1" parent="1">
          <mxGeometry x="230" y="380" width="540" height="350" as="geometry" />
        </mxCell>
        <mxCell id="jEEWUr5B4z5rgXsGciDL-2" value="" style="rounded=0;whiteSpace=wrap;html=1;fillColor=#ffe6cc;strokeColor=#d79b00;" vertex="1" parent="1">
          <mxGeometry x="260" y="400" width="140" height="290" as="geometry" />
        </mxCell>
        <mxCell id="jEEWUr5B4z5rgXsGciDL-3" value="" style="rounded=0;whiteSpace=wrap;html=1;fillColor=#dae8fc;strokeColor=#6c8ebf;" vertex="1" parent="1">
          <mxGeometry x="450" y="400" width="300" height="140" as="geometry" />
        </mxCell>
        <mxCell id="jEEWUr5B4z5rgXsGciDL-5" value="" style="rounded=0;whiteSpace=wrap;html=1;fillColor=#fff2cc;strokeColor=#d6b656;" vertex="1" parent="1">
          <mxGeometry x="450" y="550" width="300" height="140" as="geometry" />
        </mxCell>
        <mxCell id="jEEWUr5B4z5rgXsGciDL-6" value="栈" style="text;html=1;strokeColor=none;fillColor=none;align=center;verticalAlign=middle;whiteSpace=wrap;rounded=0;" vertex="1" parent="1">
          <mxGeometry x="270" y="410" width="40" height="20" as="geometry" />
        </mxCell>
        <mxCell id="jEEWUr5B4z5rgXsGciDL-7" value="堆" style="text;html=1;strokeColor=none;fillColor=none;align=center;verticalAlign=middle;whiteSpace=wrap;rounded=0;" vertex="1" parent="1">
          <mxGeometry x="454" y="410" width="40" height="20" as="geometry" />
        </mxCell>
        <mxCell id="jEEWUr5B4z5rgXsGciDL-8" value="方法区" style="text;html=1;strokeColor=none;fillColor=none;align=center;verticalAlign=middle;whiteSpace=wrap;rounded=0;" vertex="1" parent="1">
          <mxGeometry x="454" y="560" width="40" height="20" as="geometry" />
        </mxCell>
        <mxCell id="jEEWUr5B4z5rgXsGciDL-30" value="0x1111" style="text;html=1;strokeColor=none;fillColor=none;align=center;verticalAlign=middle;whiteSpace=wrap;rounded=0;" vertex="1" parent="1">
          <mxGeometry x="480" y="585" width="60" height="20" as="geometry" />
        </mxCell>
        <mxCell id="jEEWUr5B4z5rgXsGciDL-31" value="HelloWorld" style="rounded=0;whiteSpace=wrap;html=1;fillColor=#f8cecc;strokeColor=#b85450;" vertex="1" parent="1">
          <mxGeometry x="550" y="580" width="120" height="25" as="geometry" />
        </mxCell>
        <mxCell id="jEEWUr5B4z5rgXsGciDL-32" value="0x1122" style="text;html=1;strokeColor=none;fillColor=none;align=center;verticalAlign=middle;whiteSpace=wrap;rounded=0;" vertex="1" parent="1">
          <mxGeometry x="480" y="615" width="60" height="20" as="geometry" />
        </mxCell>
        <mxCell id="jEEWUr5B4z5rgXsGciDL-33" value="Hello" style="rounded=0;whiteSpace=wrap;html=1;fillColor=#f8cecc;strokeColor=#b85450;" vertex="1" parent="1">
          <mxGeometry x="550" y="610" width="120" height="25" as="geometry" />
        </mxCell>
        <mxCell id="jEEWUr5B4z5rgXsGciDL-34" value="0x1133" style="text;html=1;strokeColor=none;fillColor=none;align=center;verticalAlign=middle;whiteSpace=wrap;rounded=0;" vertex="1" parent="1">
          <mxGeometry x="480" y="645" width="60" height="20" as="geometry" />
        </mxCell>
        <mxCell id="jEEWUr5B4z5rgXsGciDL-35" value="World" style="rounded=0;whiteSpace=wrap;html=1;fillColor=#f8cecc;strokeColor=#b85450;" vertex="1" parent="1">
          <mxGeometry x="550" y="640" width="120" height="25" as="geometry" />
        </mxCell>
        <mxCell id="jEEWUr5B4z5rgXsGciDL-46" style="edgeStyle=orthogonalEdgeStyle;rounded=0;orthogonalLoop=1;jettySize=auto;html=1;exitX=1;exitY=0.5;exitDx=0;exitDy=0;entryX=0;entryY=0.5;entryDx=0;entryDy=0;" edge="1" parent="1" source="jEEWUr5B4z5rgXsGciDL-36" target="jEEWUr5B4z5rgXsGciDL-30">
          <mxGeometry relative="1" as="geometry" />
        </mxCell>
        <mxCell id="jEEWUr5B4z5rgXsGciDL-36" value="s1-&amp;gt;0x1111" style="text;html=1;strokeColor=none;fillColor=none;align=center;verticalAlign=middle;whiteSpace=wrap;rounded=0;" vertex="1" parent="1">
          <mxGeometry x="280" y="490" width="100" height="20" as="geometry" />
        </mxCell>
        <mxCell id="jEEWUr5B4z5rgXsGciDL-37" value="0x2211" style="text;html=1;strokeColor=none;fillColor=none;align=center;verticalAlign=middle;whiteSpace=wrap;rounded=0;" vertex="1" parent="1">
          <mxGeometry x="494" y="435" width="60" height="20" as="geometry" />
        </mxCell>
        <mxCell id="jEEWUr5B4z5rgXsGciDL-48" style="edgeStyle=orthogonalEdgeStyle;rounded=0;orthogonalLoop=1;jettySize=auto;html=1;exitX=1;exitY=0.5;exitDx=0;exitDy=0;entryX=0.5;entryY=0;entryDx=0;entryDy=0;" edge="1" parent="1" source="jEEWUr5B4z5rgXsGciDL-38" target="jEEWUr5B4z5rgXsGciDL-30">
          <mxGeometry relative="1" as="geometry" />
        </mxCell>
        <mxCell id="jEEWUr5B4z5rgXsGciDL-38" value="0x1111" style="rounded=0;whiteSpace=wrap;html=1;fillColor=#f8cecc;strokeColor=#b85450;" vertex="1" parent="1">
          <mxGeometry x="564" y="430" width="120" height="25" as="geometry" />
        </mxCell>
        <mxCell id="jEEWUr5B4z5rgXsGciDL-47" style="edgeStyle=orthogonalEdgeStyle;rounded=0;orthogonalLoop=1;jettySize=auto;html=1;exitX=1;exitY=0.25;exitDx=0;exitDy=0;entryX=0;entryY=0.5;entryDx=0;entryDy=0;" edge="1" parent="1" source="jEEWUr5B4z5rgXsGciDL-39" target="jEEWUr5B4z5rgXsGciDL-37">
          <mxGeometry relative="1" as="geometry" />
        </mxCell>
        <mxCell id="jEEWUr5B4z5rgXsGciDL-39" value="s2-&amp;gt;0x2211" style="text;html=1;strokeColor=none;fillColor=none;align=center;verticalAlign=middle;whiteSpace=wrap;rounded=0;" vertex="1" parent="1">
          <mxGeometry x="280" y="520" width="100" height="20" as="geometry" />
        </mxCell>
        <mxCell id="jEEWUr5B4z5rgXsGciDL-40" value="s3-&amp;gt;0x1122" style="text;html=1;strokeColor=none;fillColor=none;align=center;verticalAlign=middle;whiteSpace=wrap;rounded=0;" vertex="1" parent="1">
          <mxGeometry x="280" y="550" width="100" height="20" as="geometry" />
        </mxCell>
        <mxCell id="jEEWUr5B4z5rgXsGciDL-41" value="s4-&amp;gt;0x1133" style="text;html=1;strokeColor=none;fillColor=none;align=center;verticalAlign=middle;whiteSpace=wrap;rounded=0;" vertex="1" parent="1">
          <mxGeometry x="280" y="580" width="100" height="20" as="geometry" />
        </mxCell>
        <mxCell id="jEEWUr5B4z5rgXsGciDL-51" style="edgeStyle=orthogonalEdgeStyle;rounded=0;orthogonalLoop=1;jettySize=auto;html=1;exitX=1;exitY=0.5;exitDx=0;exitDy=0;entryX=0;entryY=0.5;entryDx=0;entryDy=0;" edge="1" parent="1" source="jEEWUr5B4z5rgXsGciDL-42" target="jEEWUr5B4z5rgXsGciDL-30">
          <mxGeometry relative="1" as="geometry" />
        </mxCell>
        <mxCell id="jEEWUr5B4z5rgXsGciDL-42" value="s5-&amp;gt;0x1111" style="text;html=1;strokeColor=none;fillColor=none;align=center;verticalAlign=middle;whiteSpace=wrap;rounded=0;" vertex="1" parent="1">
          <mxGeometry x="280" y="605" width="100" height="20" as="geometry" />
        </mxCell>
        <mxCell id="jEEWUr5B4z5rgXsGciDL-52" style="edgeStyle=orthogonalEdgeStyle;rounded=0;orthogonalLoop=1;jettySize=auto;html=1;exitX=1;exitY=0.5;exitDx=0;exitDy=0;entryX=0;entryY=0.5;entryDx=0;entryDy=0;" edge="1" parent="1" source="jEEWUr5B4z5rgXsGciDL-43" target="jEEWUr5B4z5rgXsGciDL-44">
          <mxGeometry relative="1" as="geometry">
            <Array as="points">
              <mxPoint x="440" y="645" />
              <mxPoint x="440" y="480" />
            </Array>
          </mxGeometry>
        </mxCell>
        <mxCell id="jEEWUr5B4z5rgXsGciDL-43" value="s6-&amp;gt;0x2222" style="text;html=1;strokeColor=none;fillColor=none;align=center;verticalAlign=middle;whiteSpace=wrap;rounded=0;" vertex="1" parent="1">
          <mxGeometry x="280" y="635" width="100" height="20" as="geometry" />
        </mxCell>
        <mxCell id="jEEWUr5B4z5rgXsGciDL-44" value="0x2222" style="text;html=1;strokeColor=none;fillColor=none;align=center;verticalAlign=middle;whiteSpace=wrap;rounded=0;" vertex="1" parent="1">
          <mxGeometry x="494" y="470" width="60" height="20" as="geometry" />
        </mxCell>
        <mxCell id="jEEWUr5B4z5rgXsGciDL-49" style="edgeStyle=orthogonalEdgeStyle;rounded=0;orthogonalLoop=1;jettySize=auto;html=1;exitX=1;exitY=0.5;exitDx=0;exitDy=0;" edge="1" parent="1" source="jEEWUr5B4z5rgXsGciDL-45">
          <mxGeometry relative="1" as="geometry">
            <mxPoint x="510" y="580" as="targetPoint" />
          </mxGeometry>
        </mxCell>
        <mxCell id="jEEWUr5B4z5rgXsGciDL-45" value="0x1111" style="rounded=0;whiteSpace=wrap;html=1;fillColor=#f8cecc;strokeColor=#b85450;" vertex="1" parent="1">
          <mxGeometry x="564" y="465" width="120" height="25" as="geometry" />
        </mxCell>
        <mxCell id="jEEWUr5B4z5rgXsGciDL-53" value="" style="shape=image;verticalLabelPosition=bottom;labelBackgroundColor=#ffffff;verticalAlign=top;aspect=fixed;imageAspect=0;image=data:image/png,iVBORw0KGgoAAAANSUhEUgAAAX8AAACUCAYAAAB7sCmSAAAgAElEQVR4nO29f0xUV/7///h88wnrZmCwCC28d/bDIINN0SrkC6FIanAQqy42kUJ97xJ1swHehAqbNn5LCEaCgRCtcRPp21AwJtVgW8dK0lq0ilPKxvI1ukFtpSkMwqTsioWyMkrfln++3z/uzHDvzNz5ATP80PNIJoF7z9xzZ+bc1znndV7n9fxf/+f//J//D4FAIBA8U/xfC30DAoFAIJh/hPEXCASCZxBh/AUCgeAZRBh/gUAgeAYRxl/gH+UVmM1HMLcXkTNfdTleLZuCePFs6j7uwFSbHcRrPqMY6zB1mKgzLvSNCGbDkjD+YVX1pJjeJnyhbyTERNRbST3+EWELfSMhZRMfmI/wWYNBvcjxJozGfRiNzVyfDG7txe+/S7p2kC/ruoJ74WcRcy1f3tOQvq+J4oW+F0HA/O+A37HnbVLyEmQHhrAU/o3HwbsnwWLkeBPG4wt9E3Mju9ZE/sopbhyp4MScrlTC1vYa0iPhYU8Dx2pag3SHi4fYhjuUZmpnDkx+Q8uOPzHqUu7E3sP8/uN3yf+4Dst/1iK61KVDQCP/sKp6UvISGL9Qya1Cx+suy0/ufspHq4KlTzFvZGiYuv7f1Jpnf5XYhjscMFfAlW94GLybW1TENtyhNPk7Wox6Dhr1HDR+wlDkekrbzxDrVrqL2pYbTGnTeUu40pYUAYz8N/N8mhaGLzDyofz4ZUb+MlNGZ8oj+tFN+v5yiml5MfuMYfxCpez99vLOQjZGmvYz3u3pnBaD6Zjsgu4zjrCqepLTZkYrUzffZ+BQv6x+sDT9TFxFGhqGsBR+wbKTe9FFAMMXuPX/XPb/6wDgMLrTO4mR33/zy4xdmykRUW/FEPUNd8v/OPN9ZH3EqrL1/HIpnpFh6W+N8x3rWX3aOnOBRy7v9ckmPjBvgXP7OPu7WmoyI+zHrZw1NtHsUi6up5nX/7kVc0G888zAuX38l2OUX16hOIflEsbSzoDrzGmQHwcyyzDLjPDjnmZer7H4/SnJLeKzagN3G+uwFh7hTYcXabKXhh1tXHUpnl37GokMct6Lu8dttGv5hIOlVTP/l3fajeKfGM09Q5L/d7uoSG0ZZrvM6+Y6exmtWctBxTuquNKzldLMNaTmwsUrLhc01/Jlfgf5GW9QTJfKrCqbuo8ll9v5bXOdeQmCQeBunxWxhIGKMbrMTzc3EJ22Cu0G7EZcInxNAjDEQ1fDrzC6m9Gd3E1Y9ymmucxI4WVGcBj1n726l8LfO4ZBP4SlcL9UZsNukir2klQl6wBYQdyf4X7hBZab8og7uRt+eJ8+dpOctppwLvvvviq6SuoWA1O99fQelR6csHe+ZXWZld/o4xlp8/M61/5Iv72z8NhRzJKkgiPUTPbSYGzjKgYa28t4s72IARfDGJ5ZhhkrZ437Zox0QS2NA3VUX0Hm7pGukeGrTssljMZOZ3lnnTV19nplnU4gxt4jEWRUH2F1TzPGUovz2jUtD7iq6KCy2fiSBu7dVjU6kuGHG416p3GLbbjDrvIqTjs6wuObOLjEXV+S4bfwuXETvc5jd9ia2+pu1APgxO1B8lcmsq4E8OQFM24kWQvgpYxgXgnA+DsMexrJpjTlqFrGdE8/U2lpPJe5ivFux/nNLNfD1M0vZozrhlh+C4x/Jx9ty2cRAbBhN3F6GL8g6xy6T2HNXEVy2h8Ip99+XAs/nOIxepYDGvrpO9QPVQArWLYBHnd7rkJJCTFZBrB+Qv/RmVY8ffQYI8f3o8v6iJ/a5m7A54RiBGyh+ooVc4GBTblw9YpaObjaZeGvmalEJQGBGoPJXhqcRtdCZ98jMjKjSAK3kXjQsFySdSKd9Fq2kBTzAjnyOu2GZ/Cq+ngzLkYLk9/QK/vMozVrOR2i26akiY4diaqnB9u3UdHqGC2rFLLd4HBAfvYSYmMAyz+chh+gt3Stz3fGxWgBC6NqbaL1NoM7Eon9j2zwdEfmr+grTSddO8htYfgXBQGN/KcP7eeWY8SetpcUE+Dq4un+f/n3n9PQvfgKYfRLx/esJhobIz2yzqJ7lP+pgOi8Y0CliyspMMIyV6FhiPsu15ge/RmnUQfAxr97+gG9VODnUaYh8PWKLCPPRcCUZcDlRCuTlkp0qc/zG9RmR/PD477rSoM7MMFj4t2N+tgDZbkrbbx+xd9pi48654GBW64uKA8kRqFhiolB9SL3x2xgkPzanhY2g05rBdt8GsEuav8zmEuorYyO1YBhJwdaULq0vFHeKbmJXDoNJRYmbJAYY8Cj8Q/6ZxHMlcDdPm7umDSSTatkvvp+xr8eQpc34/oJX5MAwxcUbiDpOsM8ObkXXd4xovNA6fP3n7BoLe5rAg5sgX9EP/nlgdrT+zzLsuDRNZXTgkXHaM1aDpZ3cqBgPaXmYemgq8//KaC3VM/9hjuUZu7kgHkn4CNiqbyTAwUGKdrnKfsunnVmYfxnmD60n1sbdpNUkYZu+2bGu+0unA/vMp6XZ3f96Fmuh/ELnhZT+xn/SyXjYPfRp6GrqAcC6wCmx22g974mQILaiVDwE0+E4V96yHz6km88wBFyICyI20diZkHXHrKaWUNlA+4dQO4ZKgsMgIXP52M2JJhX5mT81ZHWB5JffIWwPSuIZgiLL7dO9ykGgKSKNJYlADLjr3DfeOgUfJ2fLcXvd5C/EqauH6ZQHiVyzcy/i9aje+kwI7wre0cJkQYtWC/yyMt1wzLWoAF+cTn+64QN4v1wGRnrMO1LR4P/kRM52QbCsdK74AuWw0xMQlKMHpjrgq+fDE4wRSJRiYCfYZ69pXpoGWZ7zO+JheAbvgVx+7jdBBd3AO01pMe4bLrLPUNl9XqWo1wcVsdAlBamvlf/TR3Pk9SxzfHWBXPG/zj/DbtJem+z2+Hw7WlosDHyuXJkP93Tz1REGsl5CcqFXgd73iapapXikOS7t/FkyKXs0M9MoUW33b1+AD78gpFHWnQVwdwFXMy6ldJfmpc2ooxgbmXsmgXid6Irkt3/O5XoImyMXJzpEH6dsEHEGiKzHGW+ZXWq56Hc9IOfAANx75R4vbPsV5PtoaH2yAlf5Bbx18wIHvdclIV6LhQWrGOAIYvG3Hmq0vwVfTZIXKe2D7WEre2dpCqOHWKNARj78Ska8R5il2usfu5GkiLh4ZjMaAds+IGSdSQCo/9S66xmnqfEnDrEjoCFx/+Rf/cpBhLeJsWUpzz+6CZ9hafcR6r2hV9NhGOR1YUP/4a1qp4Uk9wQquwW7j7FQMIKUvLyZPXLy0ruoyfvHXP3+88qfh/gBLfv5ZO4Eqa+/8p9at2WQy9XSd1iJWaL46AFy64cxah/+ujLWOqtGMqs6MqQ4vZ3/cjzp3e6V9mWw90XvmV16n5ST++XjnmI8+/6ex9vZUgjf7XIiXCXOHpF7H4AlLXIYugBIrdgNm+Z0zWbS5uJby8jo/oI5mrpmDzOP/h1dvHV92+RnrGOYvAwU2rl4g4Du8zDbJcdfdjTwEG5K8RpFGVk1nDAXAPYuNG4dk7hkqGnitPHz1BpHlZ8hqFz+plwViC10PEZDWx3+U7UdvoWr0sE2w0+VR3Rn+DT66/xboYGtFGoLQsL5o//FTolr1VEn9yLDg8bvgQhJJhx9E8TxTR15JN47zzb9ootRkHF7oYc9eXOcbgrxW+wKAhdYrcNr/BcBIx/LQy/YDFwgk+vT8HKfJr8cZUJ/CSbutJ0NF5H/RLF+elomOLGeWH4FwMhMv6b0VWkoXFLBSEQLBxddYWcvweJO0Qa4mDhyJJ63kvUUXatiY6ODvKjb3B4W+GccisJgkdwo33s4ZoamIOvXSAIHY4slMmvZoNZeJ3nhLGO1/zIktpVVyj8+4uQEPr8BQKBQLBYWRJiLgKBQCAILsL4CwQCwTOIMP4CgUDwDCKMv0AgEDyDCOMvEAgEzyDC+AsEAsEziDD+Av8or8BsPoK5vYic+arL8WrZFMSLZ1P3cQcmITY+d4x1mDrEhrmlypIw/mFV9aSYgpmxc3ESUW8l9fhHgSuLLSk28YH5CJ81GNSLHG/CaNyH0djM9cng1u7YkfqlFyF3gZ+Ya/nynob0fU2o5UsVLF4C3+G7521S8uTKKCqZOAVPF04h96VLdq2JfD92pPrGLoIS6UMFa6niUO9ywz3Fs2PHdP7HdVhmISwjWDgCMv6SbKOW8Qtyzd3N6E7uZlpk7hQsaop5I0PD1PXDc8otE9twh9JMuHHuGx4WrA/e7S06/E1R3UVty0ZM+9J5qzabLjGjWjIEYPw383yaFtyStV1m5C8zZXSmPKJdRd3BOWNw6zhMeUQ7C8k1fF3PuWr0us84HJ2Tg6mb7zNwqF9WP1iafiauIg0NQ1gKv2DZyb3oIphlLqLD6E7vJEZ+/80vMyaTcIyot2KIcsnJn/URq8rW88uleEaGpb81znesZ/Vp68wFPOTz946U0plz+zj7u1pqMiPsx62cNTbJxFxkqZ//uRVzQbzzjCJnfnmF4hyWSxhLXUXTfdeZ0yA/DrjoDTwONAV1bhGfVRu421iHtVCW/3+yl4YdbW5C8tm1r5HIIOe9GCfJsMv0JVw1fMs7KU3+jhbjnxjNPUOS/3e7qJAkKmf+n/PsxVzLl/kd5Ge8QTFdKrMqhySl/+pzgtASuNtnRSxhqMkMSvKN0Wkz4u0OwtckAEM8dDX8CqMrzSLCuk8x7SYU712jN/y9Yxj0Q1gK90tlNuwmqWIvSVWyDoAVxP0Z7hdeYLkpj7iTu+GH9+ljN8lpqwnnsv/uq6KrpG4xMNVbT+9R6cEJe+dbVpdZ+Y0+npE2P69z7Y/02zsLjx3FLEkqOELNZC8NxjauYqCxvYw324sYcDGM4ZllmLFy1rhvxkgX1NI4UEf1FWTuHukaGb7qtFzCaOx0lnfWWVNnrzeYegMRZFQfYXVPM8ZSi/PaNS0PuKrooLLZ+JIG7t1WNTrOEX2j3jnajW24w67yqhmhE5nG71JFMvxK901qyx225rbOSYjmxO1B8lfaleU89SPGjSRrwak+95R5ypYiARh/h2FPI9mUphxVy5ju6WcqLc0u3u44v5nlepRyjhti+S0w/p18tC2fRQTAht3E6WH8gqxz6D6FNXMVyWl/IJx++3Et/HCKx+hZDmjop+9QP1RBYBrAJcRkGcD6Cf1HZ1rx9NFjjBzfjy7rI35qm7sBnxOKEbCF6itWzAUGNuXC1Stq5eBql4W/ZqYSlQQEagwme2lwGl0LnX2PyMiMIgncRuJBw3JJ1ol00mvZQlLMC+TI67QbnsGr6uPNuBgtTH5Dr+wzj9as5XSIbnthBNxLiI0BLP9Q+O17S9d6KKslvXqY9GrH/z4kHVtvM7gjkdj/yMajRpf5K/pK00nXqqvPCeaXgEb+04f2c8sxYk/bS4oJScZR7uKxyzfqXnyFMPql43tWE42NEbmcY/co/1MB0XnHgMo55f2XtH+HuO9yDYWwOwAOSUm9VODnUaYh8OiaLCPPRcCUZcDlRCuTlkp0qX6IsIeYx33XlQZ3YILHxLsb9bEHynJX2nj9ir/TFh91zgMDt1xdUB5IjELDFBOD6kXuj9nAsJ7S9jMeZQqDzoIIuLcyOlYDhp0caEHp0pLjNsORFri3m+8Qq7oOYGHCBokxagKNoRajFwTKLEI9LzNSWMmtwkr6btogIo1kUz3RGxzn+xn/eggiJNcP2F0+w90KN5B0nfcZeSR1ACmmY6QoruM/YdFaIAGDyXEd+0sRlRR8fnmg9vQ+z7KskFYtCDKjNWs5eM4CkespNQ9zwDzMgZZDC31bQae3VE9Lj03qAOyfs7LBl7RZKxePf8NDtCRlCxm0p4U5iblMH9rPLbuAi277Zsa77S6cD+8ynpdnd/3oWa6H8QueFlMl4fVxcArB6Crqgf0uHYWP+xi3gd77mgCh7Qdc+Ikn13yXEiwyZCNeyTfuY4Q8FxbE7SMxWrOWg9JNSCGrmTVUNuB90ffKj/y7GhJivOzPECwpgqvk5URaH0h+8RXC9qwgmiEsvtw63acYAJIq0liWAMiMv8J946FT8HV+thS/30H+Spi6fphCeZTINTP/LlqP7qXDjPCu7B0lRBq0YL3IIy/XDctYgwb4xeX4rxM2iPfDZeQQwsb/yImcbAPhWOld8AXLYSYmISlGD8yTwPzgBFMkEpUI+Bnm2Vuqh5Zhtsf8nlgIvhtoQdw+bjfBxR1Aew3pvox6+f9NAjB0S60jNBClhanv1X9Tx/M06EvoXTAv+O/22bCbpPc2ux0O356GBhsjnytH9tM9/UxFpJGcl6Bc6HWw522SqlYpDkm+extPhlzKDv3MFFp0293rB+DDLxh5pEVXEcxdwMWsWyn9pXlpI8pkAK2MXbNA/E50RbL7f6cSXYSNkYszHcKvEzaIWENklqPMt6xO9TyUm37wE2Ag7h3vU+vsV5PtoaH2yAlf5Bbx18wIHvdclIV6LhQWrGOAIYvG3Hmq0vwVfTZIXKe2D7WEre2dpCqOHWKNARj7MfT+/3njELvazxArP5S7kaRIeDjmpSPOPUNlgQEsn8xEPrlSso5EYPRfap3VzPOUmFOHSK6x8Pg/8u8+xUDC26SY8pTHH92kr9DDBi/7wq8mwrHI6sKHf8NaVU+KSW4IVXYLd59iIGEFKXl5svrlZSX30ZP3jrnsBWAOWsInuH0vn8SVMPX9V+5T67YcerlK6hYrMVscBy1YduUoRv3TR1/GUm/FUGZFV4YUt7/rR54/vdO9yrYc7r7wLatT95N6er90zEOcf9ff+3grQxr5q0VOhLvE0Sti9wOgrEUWQw8QuQWzecucrtlc2kx8exkZ1Ucw26NJ5HH+wa+zi6++f4v0jHUUg4eZUisXdxjYZR5mu+zow54GDspdIblnqKxez3L5WzNrOGCuwf9NUQtJFaePn6HSPKz4DEPn9Aqj7rbfwV7mmJfvvXhdIthu8KnqiP4En15/jXczNKCNQm1ZWDB/hFDDdxXRJ/eiw8OGL0EICWYc/dNEMU0d+STeO8+2vWKLUVCxuyFHfblzHO5K8RssCkKX2G3DKzwXAeNfC8MvWAyc4NPrU7AynyYRsBJEsqkrTUfjddQvUZyfjoYpbpwXhn8xECLjvxldRRoat1QQAsHC0VVXyPl7kLhDpCEOFo4sqee9RB1l15ro6OggP/oGh7cVzim3kiB4BDfaxx6uqYE5+NoFgtDhyEKZ/Go2mIXXeU4Y63jNjyypXXWFwr+/CAmhz18gEAgEi5UlIeYiEAgEguAijL9AIBA8gwjjLxAIBM8gwvgLBALBM4gw/gKBQPAMIoy/wD/KKzCbj2BuLyJnvupyvFo2BfHi2dR93IGpVmSXmTPGOkwdYs/EUmVJGP+wqnpSTMFM2rY4iai3knr8o8DFZZYUm/jAfITPGrxkkTzehNG4D6OxmeuTwa3dsSnpSyE0PnfMtXx5T0P6vibUUuYJFi+Bb/KyC7HPoJKMTfB04dTyXbpk15rI92NTkm/sefAjgyB+vqg5xC7zTpkUhruUo2PTXP7HdVhmoS0gWDgCMv6SkLqW8Qty2UVJdH1aJG8TLGqKeSNDw9T1w3NKL+AUej/3DQ8L1gfv9hYZjsyeQ+f0PkTru6ht2YhpXzpv1WbTJWZUS4YAjP9mnk/Tglu+Hrnoul3f11XXF5wzBreOw5RHtLOQjZEmh4qX6zmtS7pm9xmHo3NyoBCZ3/M2KXlgafqZuIo0NAxhKfyCZSf3ootglukoDqM7vZMY+f03v8yYTMUrot6KIcolLXPWR6wqW88vl+IZGZb+1jjfsZ7Vp60zF/CQ0tk7UlZPzu3j7O9qqcmMsB+3ctbYJMvnL8v++c+tmAvinWcUaZPLKxTnsFzCWOqqm+u7zpwG+XHAJeX040CzkOYW8Vm1gbuNdVgLZSmgXQTpHWTXvkYig5z3YpzcUhlbPlGqeJV3Upr8HS3GPzGae4Yk/+92USGplM387zZ7yT3Dm3bDr5q/X465li/zO8jPeINiulRmVQ5VMv8FiAShJXC3z4pYwlBTmpIUvKLTJP1euRRj+JoEYIiHroZfYXSlWURY9ymmucxI4WVGcBh17zKN4e8dw6AfwlK4XyqzYTdJFXtJqpJ1AKwg7s9wv/ACy015xJ3cDT+8Tx+7SU5bTTiX/XdfFV0ldYuBqd56eo9KD07YO9+yuszKb/TxjPirgX7tj/TbOwuPHcUsSSo4Qs1kLw3GNq5ioLG9jDfbixhwMYzhmWWYsXLWuG/GSBfU0jhQR/UVZO4e6RoZvuq0XMJo7HSWd9ZZU2evN5gppyPIqD7C6p5mjKUW57VrWh5wVdFBZbPxJQ3cu61qdJwj+ka9Myd/bMMddpVXzRhAN2HzpYdk+JXum9SWO2zNbXV+7tTC9Syf/IazAXzWE7cHyV9pFxfy5AUzbiRZC04BoqfVU7aECMD4Owx7GsmmNOWoWsZ0Tz9TaWl2/V7H+c0s16NU9NoQy2+B8e/ko235LCIANuwmTg/jF2SdQ/cprJmrSE77A+H0249r4YdTPEbPckBDP32H+qEKApOBLCEmywDWT+g/OtOKp48eY+T4fnRZH/FT29wN+JxQjIAtVF+xYi4wsCkXrl5RKwdXuyz8NTOVqCQgUGGSyV4anEbXQmffIzIyo0gCt5F40LBcknUinfRatpAU8wI58jrthmfwqvp4My5GC5Pf0Cv7zKM1azkdotteGA3fEmJjAMs/FH773tK17mXGfiSuZZhSbzMEOa23GdyRSOx/ZONRpsX8FX2l6aRr1QWIBPNLQCP/6UP7ueUYsaftJcWEpOQld/HYFbx0L75CGP3S8T2ricbGiFzRq3uU/6mA6LxjQOWcUj9L8o9D3He5hkLbFwCHqpheKvDzKNMQeHRNlpHnImDKMuByopVJSyW6VD90eEPM477rSoM7MMFj4t2N+tgDZbkrbbx+xd9pi48654GBW64uKA8kRqFhiolB9SL3x2xgWE9p+xladvwp9NKNC6Lh28roWA14FaY3EB0JRO5kzTk9B0vth8s7OVDgTejdwoQNEmPUNLpCrUcsCJRZhHpeZqSwkluFlfTdtEFEGsmmeqI3OM73M/71EERIrh+wu3yGuxVuIOk67zPySOoAUkzHSFFcx3/CorVAAgaT4zr2lyIqKfj88kDt6X2eZVkhrVoQZEZr1nLwnAUi11NqHuaAeZgDLYcW+raCTm+pnpYem9QB2D9nZYMHdRtXvd7jm/jcAsuTNyo1gAVLljnl858+tJ9b9hz+uu2bGe+2u3A+vMt4Xp7d9aNnuR7GL3haTJW0d8fBqQWgq6gH9rt0FD7uY9wGeu9rAoS2H3DhJ55c811KsMiQ+fQl37i3EfIcWRC3j8RozVoOSjchhaxmykf0FsYn5/lxESwIwRVzcSKtDyS/+Aphe1YQzRAWX26d7lMMAEkVaSxLAGTGX+G+8dAp+Do/W4rf7yB/JUxdP0yhPErkmpl/F61H99JhRnhX9o4SIg1asF5UiLi7EpaxBg3wi8vxXydsEO+Hy8ihhYr/kRM52QbCsdK74AuWw0xMQlKMHpgnjeHBCaZIJCoR8DPMs7dUDy3DbI/5PbEQfDfQgrh93G6CizuA9hrSYwzOY6NjNeD2uWfWAjx/FwaitDD1vfpv6nieBn1p/QrmBf/dPht2k/TeZrfD4dvT0GBj5HPlyH66p5+piDSS8xKUC70O9rxNUtUqxSHJd2/jyZBL2aGfmUKLbrt7/QB8+AUjj7ToKoK5C7iYdSulvzQvbUSZDKCVsWsWiN+Jrkh2/+9UoouwMXJxpkP4dcIGEWuIzHKU+ZbVqZ6HctMPfgIMxL3jXWQ2+9Vke2ioPXLCF7lF/DUzgsc9F2WhnguFBesYYMiiMXeeqjR/RZ8NEtep7UMtYWt7J6mKY4dYY8CLsVuKHGJX+xml2yZ3I0mR8HBsxmj3mr7hYeR63pS5g2IbKkiPtHHDpDILKllHIjD6L7XOauZ5SsypQyTXWHj8H/l3n2Ig4W1STHnK449u0lfoYYOXfeFXE+FYZHXhw79hraonxSQ3hCq7hbtPMZCwgpS8PFn98rKS++jJe8dc9gIwBznJE9y+l0/iSpj6/iv3qXVbDr1cJXWLlZgtjoMWLLtyFKP+6aMvY6m3YiizoitDitvf9SPPn97pXmVbDndf+JbVqftJPb1fOuYhzr/r7328lSGN/NUiJ8Jd4ugVsfsBUNYii6EHiNyC2bxlTtdsLm0mvr2MjOojmKulY/I4/+DX2cVX379FesY6isHDTKmVizsM7DIPs1129GFPAwdd4t8rq9ezXP7WzBoOmGsAGzca1zrDJRcnVZw+foZK87DiM7jF81/5E8c4Q2W147OBp929corXJYJXEfcTfHr9Nd7N0IA2CrVlYcH8EUIZx1VEn9yLDg8bvgQhJJhx9E8TxTR15JN47zzb9ootRkHF7oYc9eXOcbgrxW+wKAhdYrcNr/BcBIx/LQy/YDFwgk+vT8HKfJr8cZUJ/CSbutJ0NF5H/RLF+elomOLGeWH4FwMhMv6b0VWkoXFLBSEQLBxddYWcvweJO0Qa4mDhyJJ63kvUUXatiY6ODvKjb3B4W+GccisJgkdwo33s4ZoamIOvXSAIHY4slMmvZoNZeJ3nhLGO1/zIktpVVyj8+4uQEPr8BQKBQLBYWRJiLgKBQCAILsL4CwQCwTOIMP4CgUDwDCKMv0AgEDyDCOMvEAgEzyDC+AsEAsEziDD+Av8or8BsPoK5vYic+arL8WrZFMSLZ1P3cQemWpFabH4x0Ngu/Z4flC/0vcwHKu3MWIepw49NhiVNdHQ0oZaKMBgsCeMfVlVPiimYGTsXJxH1VlKPfxS4stiSYhMfmI/wWYNBvcjxJozGfRiNzVyfDG7tjh2pX3oRchcsbnIaajGbKyhb6Bvxgmo7M9fy5T0N6ft8GPbWT7lhSyT/49BlQA18hzPTSp8AACAASURBVO+et10UslQycQqeLpxC7kuX7FoT+X7sSPWNXQQl0oeu7ZLnELvMO2XCLt4ze3rHQvWOfcG6sUWNr3bm2GWe/3EdFtW0GF3U/qeBpo583n2/mK4QJMILaOQfVlVPSl4C4xckGUfpdZflJ3c/5aNVwdKnmDcyNExd/+855ZaJbbjDAXMFXPmGh8G7uUWH9Dl3wjk9B42O12wN/7OEP+2si9qWG0xp03nLq/vxBBXtgyFLRhjAyH8zz6dpwS1Z22VG/jJTRmfKI9pV1B2cM4bxC3Kxdnt5ZyEbI00OCUfXc1qXXP3uM46wqnqS02b0AaZuvs/AoX5Z/WBp+pm4ijQ0DGEp/IJlJ/eii2CWuYgOozu9kxj5/Te/zJhMwjGi3oohyiUnf9ZHrCpbzy+X4hkZlv7WON+xntWnrTMX8JDP3ztSSmfO7ePs72qpyYywH7dy1tgkE3ORpX7+51bMBfHOM4qc+eUVinNYLmEsdRVN911nToP8OOCiN/A40BTUuUV8Vm3gbmMd1kJZ/v/JXhp2tLkJyWfXvkYig5z34u6JbbhDaaZMX8LyiVLCsbyT0uTvaDH+idHcMyT5f7eLCkmicuZ/t9lL7hnezNS65/mfFQYa28vIiHT8/4jrjXVUu+gelLUc4U0uYTS9wGfVqU4X70xblNrYzHcewZvmI7zp/N+1ffuuV2qTE5w1XpT0JRxl5W0oBO0MkNw/+R3kZ7xBMV3qM9HWT7mR8y7pOXVkt6rMEuySoG6Kgz4I3O2zIpYw1GQGJfnG6DRJvF2uwxu+JgEY4qGr4VcY3c3oTu4mrPsU01xmpPAyIziMuneN3vD3jmHQD2Ep3C+V2bCbpIq9JFXJOgBWEPdnuF94geWmPOJO7oYf3qeP3SSnrSacy/67r4qukrrFwFRvPb1HpQcn7J1vWV1m5Tf6eEba/LzOtT/Sb+8sPHYUsySp4Ag1k700GNu4an8Q3mwvYsClwYZnlmHGylnjvhkjXVBL44D9QXG6e+wPk686LZcwGjud5Z111tTZ6w2m3kAEGdVHWN3TjLHU4rx2TcsDrio6qGw2vqSBe7dVHzLJ8MONRr1TkCW24Q67yqtmDKBM43epIhl+pfsmteUOW3NbnZ87tXA9yye/4WxQPqvM3VNegbkgSr2oYQvmarW22Ml/GaXfdMZoN6ko09k7CssljDtk76mupRHXjieeN81lPO5pxlij1oaC187knLg9SP5KuxqfqufQIUSUzEYjdHmYTRSvk7SgJcXBLr+T6AXg9rnMTzdtEJFGsumYmwSjg+mefqbQ8lym/PxmlutRyjluiOW3wPh38tH2ZUZmI/yyYTdxehi/IOscuk9hvWlDk/YH2UKxFn6YuQcN/VhlHcOyDf5WWEJMlgGsn9B/dOZXmz56jJFHEJO1CBZtFSMTC9VXrBBpYJOrdOJkLw2yh+hql4XHRBA1m2HtZC8NzofBQmffI4iMCu0I2XJJ1ol00msBYl5QRiQZN5KshcHb6o9kXIwWJr+jV2YYRmvWBmHkq0JJEx0dHaovaZovRYyolgt4MdCuw2v5h8J901sqVyCb0eqNaxnmgHnmVdkQaiGER1xvnHtbzGnIIgkrZ2WG+WpNG9cnI8godI8cGzi3z3cbClI7U9B6m0Eg9j+8/4pdf+9jCo2kQe2BE7cHARXFQS8ENPKfPrSfW44Re9peUkxIMo5yg22Xb9S9+Aph9EvH96wmGhsjcjnH7lH+pwKi844BlXPK+y9p/w5x3+UaCmF3ABySknqpwM+jTEPghjrLyHMRMGUZcDnRyqSlEl2qHyLsIeZx33XllHRggsfESw+SfOQz9kBZ7kobr1/xd9rio855YOCWqwvKA4lRaJhiYlC9yP0xGxjWU9p+hpYdfwq9bu+CCLjbxdkNOznQgtKl5cRAdCQQuZM15/QcLLUfLu/kQEENlQ2EboF70kLnnGUwDWxKjgDLNZdZgaQdnWE32DPt9BETLo9xc+k+txlFsNqZEgsTNkiM8SFqaf6R0X3p9k7CQzm/2pI7s8jn7+qOSSPZtErmq+9n/OshdHkzrp/wNQkwfEHhBpKuM8yTk3vR5R0jOg+UPn//CYvW4r4m4MAW+Ef0k18eqH3jz7MsCx5dUzktWHSM1qzlYHknBwrWU2oelg66+vyfAnpL9dxvuENp5k5pQReViCXLJ8pZz/FNfJ4yzPbkjcTSuohF7fVERaLQfVYQ5NDhpcycxFymD+3nll3ARbd9M+PddhfOh3cZz8vjucxVjHfrWa6H8QueFlMl4fVxcArB6CrqgcA6gOlxG+i9rwmQoHYiFPzEE2H4lx4yn77kG/c2Qp4j9kU6NQbbt1HRmk3dx++SrlUpZLvBYS8KWmqM1qzloHQTUshqpnxEb2F8cp4fl6AyzMQkMOYpMEEgJ7hKXk6khd/kF18hbM8KohnC4sut032KASCpIo1lCYDM+CvcNx46BV/nZ0vx+x3kr8R9Ff2amX8XrUf30mFGeFf2jhIiDVqwXuSRl+uGZaxBA/zicvzXCRvE++EycghhM8j5bf7FrOdkGwjHSu+CL1hKD2dSjB6YJ4H5wQmmSJR8pn6GefaW6qFlmO0xvycWgj/SXRC3j9tNcHEH0F5DeozBeWx0rAbcPvfMWoDrd6H6nISIq/+coIYo4nNRujABdffOPBBwOzMQpYWp7308B0b7b/Evle/WYQ8CHAz4v+C7YTdJ7212Oxy+PQ0NNkY+V47sp3v6mYpIIzkvQbnQ62DP226LxpLv3saTIZeyQz8zhRbddvf6AfjwC0YeadFVBHMXcDHrVkp/SavocloZu2aB+J3oimT3/04luggbIxdnOoRfJ2wQsYbILEeZb1md6nkoN/3gJ8BA3DveF9ayX022h4baIwV8kVvEXzMjeNxzUSU6Yj6RHk4MWTS6Lj6HCvNX9NkgcZ3ansoStrZ3kqo4dog1Bjwau6XLIXa1nyFWfih3I0mR8HBsxgD1mr7hYeR63pQt8MY2VJAeaeOGyXUW5O05CREDEzzG8+ItQLOpl8eRqdQENS2IH/hsZy6UrCMRL0bdjvS8q68lOO2BNp03AliT93/k332KgYS3STHlKY8/uklfoYcIHfvCrybCscjqwod/w1pVT4pJbghVdgt3n2IgYQUpeXmy+uVlJffRk/eOufv9Z60lfILb9/JJXKmyit6WQy9XSd1iJcbpWrRg2ZWjGPVPH30ZS70VQ5kVXRlS3P6uH3n+9E73KttyuPvCt6xO3U/q6f3SMQ9x/l1/7+OtDGnkf1tl9BjuEkeviN0PgLIWWWwzKHyps71mc2mzFFddfQRztXRMHucf/Dod4XLrKAYPM6VWLu4wsMs8zHbZ0Yc9DRx0iX+vrF7PcvlbM2s4YK4BbNxolEfNLEaqOH38DJXmYcVncIvnv/InjnGGymrHZwP13b0+npPcIkXcPjDzu6vEyvvkShuvJ0VhLpD79WVx/lfaeP3KAz4wu/v9Z9tm/cNXO1NSvC4RbDf41OsM0BE+el5101hX3Ze80ZFPIqgvCnsghBq+q4g+uRcdHjZ8CUJIMOPonyaKaerIJ/HeebaFYKu8QCDhZzuzu2pG27dR4c34lzTRsSOWG0cKve5Ml1xvUz7LyQldYrcNr/BcBIx/LQy/YDFwgk+vT4Vsq7xAIOFPO8umrlTy0Xsf9RfTtCMR7n3p3aAb63htJb7LuRAi478ZXUUaGrdUEALBwtFVV8j5e5C4w4+UugLBLPHVzhwZP897XZzNpu7jfBJtNzisOoMopqmjgw77DCLQGW1wo33s4ZoamIOvXSAIHY6MismvZoNZpHUWhAbVdmas4zV/MsuWvCF1ENu8dRAnqNg2exdmCH3+AoFAIFisLAkxF4FAIBAEF2H8BQKB4BlEGH+BQCB4BhHGXyAQCJ5BhPEXCASCZxBh/AUCgeAZRBh/gX+UV2A2H8HcXqRULwplXY5XUBN0SepYJq/C2YLgY6CxXfo9Pyhf6HuZD1TambEOU4cfmwxLmujoaMLPFHGzYkkY/7CqelJMwczYuTiJqLeSenwRSECGlE18YD7CZw0G9SLHmzAa92E0NnM9yOIbjt2VX85D6mFBaMhpqMVsrqBsoW/EC6rtzFzLl/c0pO/zYdhbP+WGLZH8gKU6/SfwHb573iYlTy71oJKJU/B04RRyX7pk15rsya/800DwiFtmz6WQzTNwJEF7WcbdyW/mKG8pE3J/yvHVzhy7f/M/rsOimuKhi9r/NNDUkc+77xfTFYJkhAGN/MOq6knJS2D8QiW3Ch2vuyw/ufspH60Klj7FvJGhYer6fweU/EpB7hkqq9cw0KjnoFF6fW7Rkl59h63zpU0wD8Q23KE0+TtajI7P+QlDkZK+cazvtz/j+NPOuqhtucGUNp23vLofT1DRPhiyZIQBpHewC7d7zdljL+Mq6g7OGcP4BblYu728s5Bcw9f1nCvuMw5JU3hmtDJ1830GDvXL6gdL08/EVaShYQhL4RcsO7kXXQSzzEV0GN3pncTI77/5ZcZkEo4R9VYMUS45+bM+YlXZen65FM/IsPS3Rq0KD/n8vSOldObcPs7+rpaazAj7cVm+c1m5uJ5mXv/nVswF8c4zipzn5RWKc1g8yeP5rjOnQX7cncceU1AbaGwvI8OTJF9uEZ9VG7jbWIe1UJb/XyVHfHatiXczRr0qn7mNdv3R8LXPBPCkg7tIkSQqZ/73qOHrgvTdMItZjv03jHT8/4jrjXVUu1yjrOUIb3IJo+kFRf7/mbYotbEk1Xpc27fveqU2OcFZ40VJX8JRVt6GQtDOHEhpmH2p8dmlPPGi0mWXBA1USS1wt8+KWMJQkxmU5Buj02bE2x2Er0kAhnjoavgVRnczupO7Ces+xbSbULx3jd7w945h0A9hKdwvldmwm6SKvSRVyToAVhD3Z7hfeIHlpjziTu6GH96nj90kp60mnMv+u6+KrpK6xcBUbz29R6UHJ+ydb1ldZuU3+nhG2vy8zrU/0m/vLDx2FLMkqeAINZO9NBjbuGp/EN5sL2LApcGGZ5ZhxspZ474ZI11QS+OA/UFxunvsD5OvOi2XMBo7neWdddbU2esNpt5ABBnVR1jd04yx1OK8dk3LA64qOguHIMZtH4YfbjTqncYttuEOu8qrlEInSxzJ8CuFWVJb7rA1tzVEriuZu6e8AnNBlHpRwxbM1WptsZP/Mkq/6YzRblJRprN3FJZLGHfI3lNdSyOuHU88b5rLeNzTjLFGrQ0Fr53JOXF7kPyVdjU+1b7XIRCTzEYjdHmYTRSvk7SgJSW1rhDIOHKZn27aICKNZNMxNwlGB9M9/Uyh5blM+fnNLNejlHPcEMtvgfHv5KPty4zMRvhlw27i9DB+QdY5dJ/CetOGJu0PsoViLfwwcw8a+rHKOoZlG/ytsISYLANYP6H/6MyvNn30GCOPICZrESzaKkYmFqqvWCHSwCZX98RkLw2yh+hql4XHRBClPsTyXqfzYbDQ2fcIIqO8jNaCgOWSrBPppNcC2PVbnRg3kqyFwdvqj2RcjBYmv6NXZhhGa9b6NvxJz7Mc+Pc/Axz1lzTR0dGh+pKm+VLEiGq5gBcD7Tq8ln8oFLl6S32P5uNitMBPjIZ0beMR1xvn3hZzGrJIwspZmWG+WtPG9UnP0o8D5/b5bkNBamcKWm8ziEN9S52uv/cxhUbSBvbAiduSvqNHJTUvBDTynz60n1uOEXvaXlJMSDKOcoNtl2/UvfgKYfRLx/esJhobI3I5x+5R/qcCovOOAZVzyvsvaf8Ocd/lGgphdwAckpJ6qcDPo0xD4IY6y8hzETBlGXA50cqkpRJdqh8i7CHmcd915ZR0YILHxEsPkvwBHnugLHeljdev+Dtt8VHnPDBwy9UF5YHEKK8aqAD3x2xgkPza/i9sHmJXgQGw8F2gs4MFEXC3i7MbdnKgBd8uLQflnZKbyKXTCDqTFjrn3LkY2JQcAZZrLrMCNWH3R0y4PMbNpfvcZhTBamdKLEzYIDHGgFfpRfOPjO5LV5do9KstuTOLfP6u7pg0kk2rZL76fsa/HkKXN+P6CV+TAMMXFG4g6TrDPDm5F13eMaLzQOnz95+waC2gddfvRbpmqPjlgdo3/jzLsuDRNZXTgkXHaM1aDpZ3cqBgPaXmYemgV5//IXaZd5KAjRuNnrRtFye9pXruN9yhNHMnB8ySjrRXn395JwcKDFK0j7+dxYKiJyoShe6zgiCHDi9l5iTmMn1oP7fsAi667ZsZ77a7cD68y3heHs9lrmK8W89yPYxf8LSYKgmvj4NTCEZXUQ8E1gFMj9tA731NgAS1E6HgJ54Iw7/0OL6Jg/YRvOQbVxshl7C1fScJwNC5WYZ52hfp1Bhs30ZFq32xT6tSyOZlEdALozVrOSjdBFvba0jPrKGyAfcOIPcMlfaZzedzCvOcT4aZmAQ8BQkIFARXycuJtPCb/OIrhO1ZQTRDWHy5dbpPMQAkVaSxLAGQGX+F+8ZDp+Dr/GyRVuNxX0W/ZubfRevRvXSYEd6VvaOESIMWrBd55OW6YRlr0AC/uBz/dcIG8X64jOzizxp8RQrMkJNtIBwrvQu+eCk9nEkxemCeBOYHJ5giUfKZ+hnm2Vuqh5Zhtsf8nliQGT67wYyEoXP62S8GL4jbx+0muLgDaK8hPcZl051zP4NycdgTqs9JiLj6zwlqiCI+F6ULE1B378wDAbczA1FamPrex3NgtLfBf6l8tw57EOBgwP8F3w27SXpvs9vh8O1paLAx8rlyZD/d089URBrJeQnKhV4He952WzSWfPc2ngy5lB36mSm06La71w/Ah18w8kiLriKYu4CLWbdS+ktaRZfTytg1C8TvRFcku/93KtFF2Bi5ONMh/Dphg4g1RGY5ynzL6lTPQ7npBz8BBuLe8R7Um/1qsj001B4p4IvcIv6aGcHjnosq0RHzifRwYsiicb5i481f0WeDxHVqeypL2NreSari2CHWGICxH4Nv+BeMQ+xyjdXP3UhSJDwckxmgAAy/9+ckRAxM8BjPi7cAzaZeHkemUhPUtCB+4LOduVCyjkS8GHU70vOuvpbgtAfadN4IYD+A/yP/7lMMJLxNiilPefzRTfoKPUTo2Bd+NRGORVYXPvwb1qp6UkxyQ6iyW7j7FAMJK0jJy5PVLy8ruY+evHfM3e8/ay3hE9y+l0/iSpVV9LYcerlK6hYrMU7XogXLrhzFqH/66MtY6q0YyqzoypDi9nf9yPOnd7pX2ZbD3Re+ZXXqflJP75eOeYjz7/p7H29lSCP/2yqjx/DMMsyy0Ycidj8Aylpksc2g8KXO9prNpc1SXHX1EczV0jF5nH/w63SEy62jGDzMlFq5uMPALvMw22VHH/Y0cFDuCinfSbo9FjyhYJgDBfJrLIWdvlWcPn6GSvOwbIeye0eWWujYwWxgu8t34r7T18dzklukiNsHZn53lVh5n1xp4/WkKMwFcr++LM7/ShuvX3nAB2Z3v/9s26x/+GpnSorXJYLtBp96nQE6wkfPq24a66r7kjc68kkE9UVhD4RQw3cV0Sf3osPDhi9BCAlmHP3TRDFNHfkk3jvPthBslRcIJPxsZ3ZXzWj7Niq8Gf+SJjp2xHLjSKHXnemS623KZzk5oUvstuEVnouA8a+F4RcsBk7w6fWpkG2VFwgk/Gln2dSVSj5676P+Ypp2JMK9L70bdGMdr63EdzkXQmT8N6OrSEMzfGFO8fsCQTDpqivk/D1I3OFHSl2BYJb4ameOjJ/nvS7OZlP3cT6JthscVp1BFNPU0UGHfQYR6Iw2uNE+9nBNDczB1y4QhA5HRsXkV7PBLNI6C0KDajsz1vGaP5llS96QOoht3jqIE1Rsm70LM4Q+f4FAIBAsVpaEmItAIBAIgosw/gKBQPAMIoy/QCAQPIMI4y8QCATPIML4CwQCwTOIMP4CgUDwDCKMv8A/yiswm49gbi9SqheFsi7HK6gJuiR1LJNX4WxB8DHQ2C79nh+UL/S9zAcq7cxYh6nDj02GJU10dDThZ4q4WbEkjH9YVT0ppmBm7FycRNRbST2+CCQgQ8omPjAf4bMGg3qR400YjfswGpu5HmTxDcfuyi/nIfWwIDTkNNRiNldQttA34gXVdmau5ct7GtL3+TDsrZ9yw5ZIfsBSnf4T+A7fPW+TkidXRlHJxCl4unAKuS9dsmtN9uRX/mkgqDOT2tmrCtYSRhK0l2XcdcvmGSgyIfenHF/tzLH7N//jOiyqKR66qP1PA00d+bz7fjFdIUhGGNDIP6yqnpS8BMYvVHKr0PG6y/KTu5/y0apg6VPMGxkapq7/d0DJr1yJbbjDAXMFXPmGh8G7uUVFbMMdSpO/o8Wo56BRz0HjJwxFSvrGsb7f/ozjTzvrorblBlPadN7y6n48QUX7YMiSEQYw8t/M82lacEvWdpmRv8yU0ZnyiHYVdQfnjGH8glys3V7eWUiu4et6zlWj133GIWkKz4xWpm6+z8Chfln9YGn6mbiKNDQMYSn8gmUn96KLYJa5iA6jO72TGPn9N7/MmEzCMaLeiiHKJSd/1kesKlvPL5fiGRmW/tY437Ge1aetMxfwkM/fO1JKZ87t4+zvaqnJjLAfl+U7l5WL62nm9X9uxVwQ7zyjyHleXqE4h8WTPJ7vOnMa5McBF72Bx4GmoM4t4rNqA3cb67AWyvL/q+SIz659jUQGOe/F3eM22nXV8C3vtBvFPzGae4Yk/+92USFJVM787zp7mZF5dFDFlZ6tlGauITWXADULDDS2l5ER6fj/Edcb66h2uUZZyxHe5BJG0wuK/P8zbVFqYzPfeQRvmo/wpvN/1/btu16pTU5w1nhR0pdwlJW3oRC0M0By/+R3kJ/xBsV0qc9EWz/lRs67pOfUkd2qMkuwS4IGqqQWuNtnRSxhqMkMSvKN0Wkz4u0OwtckAEM8dDX8CqO7Gd3J3YR1n2LaTSjeu0Zv+HvHMOiHsBTul8ps2E1SxV6SqmQdACuI+zPcL7zAclMecSd3ww/v08duktNWE85l/91XRVdJ3WJgqree3qPSgxP2zresLrPyG308I21+XufaH+m3dxYeO4pZklRwhJrJXhqMbVy1Pwhvthcx4NJgwzPLMGPlrHHfjJEuqKVxwP6gON099ofJV52WSxiNnc7yzjpr6uz1BlNvIIKM6iOs7mnGWGpxXrum5QFXFR2UQxDjtupDJhl+uNGodxq32IY77CqvmhE6kWn8LlUkw69U6EptucPW3NYQCdHI3D3lFZgLotSLGrZgrlZri538l1H6TWeMdpOKMp29o7BcwrhD9p7qWhpx7XjiedNcxuOeZow1am0oeO1Mzonbg+SvtKvxqXoOHQIxyWw0QpeH2UTxOkkLWlJS6wqBjCOX+emmDSLSSDYdc5NgdDDd088UWp7LlJ/fzHI9SjnHDbH8Fhj/Tj7avszIbIRfNuwmTg/jF2SdQ/cprDdtaNL+IFso1sIPM/egoR+rrGNYtsHfCkuIyTKA9RP6j878atNHjzHyCGKyFsGirWJkYqH6ihUiDWxylU6c7KVB9hBd7bLwmAiiZjOsneylwfkwWOjsewSRUaEdIVsuyTqRTnotgF2/1YlxI8laGLyt/kjGxWhh8jt6ZYZhtGZt6KQaS5ro6OhQfUnTfCliRLVcwIuBJcTGAJZ/KKQZe0t9K5DFxWiBnxgNqVLZI643zr0t5jRkkYSVszLDfLWmjeuTnqUfB87t892GgtTOFLTeZhCH+pY6XX/vYwqNpA3sgRO3JX1Hj0pqXgho5D99aD+3HCP2tL2kmJBkHOUG2y7fqHvxFcLol47vWU00Nkbkco7do/xPBUTnHQMq55T3X9L+HeK+yzUUwu4AOCQl9VKBn0eZhsANdZaR5yJgyjLgcqKVSUslulQ/RNhDzOO+68op6cAEj4mXHiT5Azz2QFnuShuvX/F32uKjznlg4JarC8oDiVFeNVAB7o/ZwCD5tee2sOknCyLg3sroWA0YdnKgBaVLyxvlnZKbyKXTCDqTFjrn3LkY2JQcAZZrLrMCNWH3R0y4PMbNpfvcZhTBamdKLEzYIDHGgFfpRfOPjO5LV5do9KstuTOLfP6u7pg0kk2rZL76fsa/HkKXN+P6CV+TAMMXFG4g6TrDPDm5F13eMaLzQOnz95+waC3uawIObIF/RD/55YHaN/48y7Lg0TWV04JFx2jNWg6Wd3KgYD2l5mHpoKvP/ymgt1TP/YY7lGbu5IBZ0pH2GrFU3smBAoMU7bMkvgs9UZEodJ8VBDl0eCkzJzGX6UP7uWUXcNFt38x4t92F8+FdxvPyeC5zFePdepbrYfyCp8VUSXh9HJxCMLqKeiCwDmB63AZ672sCJKidCAU/8UQY/qWHzKcv+cYDHCEHgn2RTo3B9m1UtGZT9/G7pGtVCtlucNirGpRnZhZ07SGrmTVUNuDeAeSeobLAAFj4fD5mQ0FhmIlJYMxTYIJATnCVvJxIC7/JL75C2J4VRDOExZdbp/sUA0BSRRrLEgCZ8Ve4bzx0Cr7OzxZJFBn3VfRrZv5dtB7dS4cZ4V3ZO0qINGjBepFHXq4blrEGDfCLy/FfJ2wQ74fLyC7+rGGQ89v8i1nPyTYQjpXeBV+wlB7OpBg9ME8C84MTTJEo+Uz9DPPsLdVDyzDbY35PLATf8C2I28ftJri4A2ivIT3GZdNd7hkqq9ezHOXisCdUn5MQcfWfE9QQRXwuShcmoO7emQcCbmcGorQw9b2P58Bob4P/UvluHfYgwMGA/wu+G3aT9N5mt8Ph29PQYGPkc+XIfrqnn6mINJLzEpQLvQ72vO22aCz57m08GXIpO/QzU2jRbXevH4APv2DkkRZdRTB3ARezbqX0l7SKLqeVsWsWiN+Jrkh2/+9UoouwMXJxpkP4dcIGEWuIzHKU+ZbVqZ6HctMPfgIMxL3jPag3+9Vke2ionxDVZgAAAwJJREFUPVLAF7lF/DUzgsc9F1WiI+YT6eHEkEWj6+JzqDB/RZ8NEtep7aksYWt7J6mKY4dYYwDGflwiI15/OMQu11j93I0kRcLDMZkBCsDwe39OQsTABI/xvHgL0Gzq5XFkKjVBTQviBz7bmQsl60jEi1G3Iz3v6msJTnugTeeNAPYD+D/y7z7FQMLbpJjylMcf3aSv0EOEjn3hVxPhWGR14cO/Ya2qJ8UkN4Qqu4W7TzGQsIKUvDxZ/fKykvvoyXvH3P3+s9YSPsHte/kkrlRZRW/LoZerpG6xEuN0LVqw7MpRjPqnj76Mpd6KocyKrgwpbn/Xjzx/eqd7lW053H3hW1an7if19H7pmIc4/66/9/FWhjTyv60yegx3iaNXxO4HQFmLLLYZFL7U2V6zubRZiquuPoK5Wjomj/MPfp2OcLl1FIOHmVIrF3cY2GUeZrvs6MOeBg7KXSFOoygjs4YD5hrAxo1G31EzC0sVp4+fodI8rPgMQ+f0iqim1ELHZzSw3eU7cd/p6+M5yS1SxO0DM7+7Sqy8T6608XpSFOYCuV9fFud/pY3XrzzgA7O733+2bdY/fLUzJcXrEsF2g0+9zgAd4aPnVTeNddV9yRsd+SSC+qKwB0Ko4buK6JN70eFhw5cghAQzjv5popimjnwS751nWwi2ygsEEn62M7urZrR9GxXejH9JEx07YrlxpNDrznTJ9Tbls5yc0CV22/AKz0XA+NfC8AsWAyf49PpUyLbKCwQS/rSzbOpKJR+991F/MU07EuHel94NurGO11biu5wLITL+m9FVpKFxSwUhECwcXXWFnL8HiTv8SKkrEMwSX+3MkfHzvNfF2WzqPs4n0XaDw6oziGKaOjrosM8gAp3RBjfaxx6uqYE5+NoFgtDhyKiY/Go2mEVaZ0FoUG1nxjpe8yezbMkbUgexzVsHcYKKbbN3YYbQ5y8QCASCxcqSEHMRCAQCQXARxl8gEAieQYTxFwgEgmcQYfwFAoHgGUQYf4FAIHgGEcZfIBAInkH+f5t1R3kzGObHAAAAAElFTkSuQmCC;" vertex="1" parent="1">
          <mxGeometry x="31" y="780" width="284.66" height="110" as="geometry" />
        </mxCell>
        <mxCell id="jEEWUr5B4z5rgXsGciDL-54" value="&lt;b&gt;&lt;font style=&quot;font-size: 14px&quot;&gt;s1==s2: 0x1111与0x2211 False&lt;br&gt;s1==s5：0x1111与0x1111 True&lt;br&gt;s1==s6：0x1111与0x2222 False&lt;br&gt;s1==s6.intern： 0x1111与0x1111 True&lt;br&gt;s2==s2.intern：0x2211与0x1111 False&lt;br&gt;s1==s2.intern：0x1111与0x1111 True&lt;/font&gt;&lt;/b&gt;" style="text;html=1;strokeColor=none;fillColor=none;align=center;verticalAlign=middle;whiteSpace=wrap;rounded=0;" vertex="1" parent="1">
          <mxGeometry x="370" y="750" width="260" height="190" as="geometry" />
        </mxCell>
        <mxCell id="jEEWUr5B4z5rgXsGciDL-55" value="" style="shape=image;verticalLabelPosition=bottom;labelBackgroundColor=#ffffff;verticalAlign=top;aspect=fixed;imageAspect=0;image=data:image/png,iVBORw0KGgoAAAANSUhEUgAAAX4AAACJCAYAAAArOlPpAAAgAElEQVR4nO2de1BUd7bvP+fWrdTUtG5ESJqZoY80r3sCjkgJZZkZCWHEOXpgfMF4xvgoc8VkvMEqMYlFYbQwoVLG4FRpypMRj5nxwZjgRJJwcQKGSWAmVkq8PDI4E55tNXOuGHzQTM9Y/HPvH3vv7t0voN9A/z5VVJrdv96/37bJ2uu31trr+0///M///P8QCAQCQcTw38O9AF+Yd+wEyQlgbX+bvqO94V7OnCAnr4CyTAlrRwPPtkRxfP9KErFw80IDr40EYUJ9Ohe3ZqBTf7d0cbymh1bncUtWUp9vsP9+u431l81BWFCQ8GP9O4u2sC5a++8i8WpJAcsk5XvRK+f29G8nEHggJIZ/3rETJMe0c+u5c0yEYkKBn4zxwAJIYwwHw+gDjPTwbHUPoBo4D+O621jfDTajF6TlBI1grn/kPlYM6B5YhNEXeIV/hn/HPpYWGDUHhugv/gV/829NU/K3l/fSGeQ5gsqeaxwqSgb6+ThvFR3hXg/QOjpGGRIjoxZAch2geOgjzbWUdWvfUA3azPY6dxZtYd0iMx9Wt/Guy7sGju9fib6jgWdbLGFY3XSxMPwAlqk3ZH241yOYrfhs+B878DppWRKjDXsZ/rV6dDXxZ7czITx7DxxlW8tmjP3v8XF/MoXJ4V6PJxQDw30Gwr2UADFw3wKLJh8j3/RmESMWRgD9/bFwr0Qwy/DR8K/miSwJTA0aow/QxPBzysuc7aSUZtljuGSRVpdlHzquCf3s2MfSghiGTx7kUaEcv5dx3EGosX0Vx5uOdt5UHjifa9xNqMllx+J+3umhGHXb7xZuvLGEq83q7yWsubIZLidw5BRknt7s1dmDji0kIfPu5Vo3nrEXhCE2L3v19t+tfnjwas7Dhsv6NbuE0QyHax102RX5OCeA0/IdvxczZdW1nk9YcpLGDUlYv3yT4srPvF+QYM7iX6gnJo7HwL1333qOvtZzwHRj/BLxpSfA1EBncROQSuzZF0k+u932OVuIR7mpeEY+l7X9bTpf7gVWE19XQNqxO3S+3CQPUYy+/eYhj4l1d4OYErsnf2T3AfuxK7XENW/hDgA1XN1Q49VZZyuyAYObF2qVxLBsJOuLgmX85fMnWro4Xq2Em/TpXNxaQP1CeU45lBVFvB6YNG+hJlDNfFjdoBhZZf0lruEsXWYB9Zj5sFo2yDl5BZTlF/DqiHdJcXsoqsFm2CfNfUyDXRlJ8hqffIZcPkOYfoHKf/PtY03cbbfA/CzS6k6QciA1IIuRDbVimOnF8rUF5sfwmC8nMzVoKn6aeGjCdqMCmLfYCOPt3LXtGNRrSkXK8XKufAPRwFDnAc3BA5zfoBr9QJNL5aVGGhs9/FyqJDco804HA+szJawdrRrDZ6as2QyLMng1CHHpnLwMEjHzodYoj/Twyw6Lxzl3Fm2hvkjx0vUSeiw8GAGWZChVM22OnnWzGaQM1i9xOpGli+OavEFrzxBWJKK9uU59OqsWwWCzu/yD75zpkgN11j//Xhh9gQM+e/wTRw/SqXrJWS+ytA734RQv+Mcdx9JMeQ7fGP1T0yTvpvKtGE/v3eORtxnKZjMPysFYZGIbCZw/5eXnveYzDv97eP5XTszfQn2+mzfUkMSSBLkMtMcpRqFUoERP6XF7i8TTSRJYhlzyEa09QzyfmaHMeR8rUco7Br6/CCCBnZgdjO3OVANgdq1m6jYxmG9AHyvhEH9xrqjRVCtNl5x0IzrMfOVDeGhSakpZGxmbTIGX+FnO2cRwcRPDqMneLNLqUhk+eZDRmVreAUAvo58PEV+QxRM7ztlCPXLeotWHqqQDnM/rZ82VCrKLTBwqAtcY/9zANX7tWKaYExsFSCzbuoX6UC5skpJGfayk3GwUT1yfQOLtLm5GZ/D9JSjvaUpXLZ6T2rqFUbgE3gWCWUbA6vgnjh6kU4m9xxeuZrR1Mo87/DwWJ7v8sQUniC1QDpoaNKEmb5Fj+FcB8mvZW/4U2eXdQDCMfy6Vl14h203VJQCWG7z574fDsr2XY+kE78EvHxgZtdgqYED26gd72/g81khZqgFYqClCmByrqKARzAFC8gDXxKgFEmI8J4JDjuzdB+3J3+YtnEA2/rEpQMANf/hCPVMStJCOJyx8PmBhWaZr2MZdCEUfmw6LzHx1GVr1Qzy/NYGdmj+Bd3vNrMs38rS+h1bt+j2FsAKA28SzEvf3a3ORV0ndS9nowugICGYmviV3c7aTcmy1y+F5hVnosDD8saPXPHHnHmDkOwFKAvuPiUfjoItNmHrodNhzjb1VJQ6H4nIXswALo32BmWLWMNLDtduQmF8QlESuO1pbuhjEwLoiTfmoPp3nMyWsHV2OCdMkI4m3TfKxETN/sRhYtTzKHt7p7uKmRWLZT9Kx5/gNHM83wO2u4Oxiuk0MIrFspbp+A8e3ZoDFv5tM7so0eScjZbOpZKrRgkjCN4+/9Rx9xn0srStwPD7ezq1iN8ndX/+CW3Gvk6YmgdWxXiWClUSy5ojOFqbxtu6+l9FftRNdWuB6DVi8z1GcWsX7Vd0caqnQHHR9KjfztMnpoa1kCltMFAI4lILObt69XMtAXgFlznF+TU8Z15r1DMr2Z1CGY/29c20+0krq98sv7fkGM2XVbXLJ5X77UMd8hNyGIlGSsA6o4Rp1tyBpPGsLr9U08GpJgW09KGta78MzAdNe/4UuLm5V37Nw80It9ekFlCV5PaWNzyo/YVPjRpKAuO/mgvD5BQr/FJHdOdWHy1xi+vKzA/HzQ9N6QiAINrvebmRjopUbbxVzuCXcqxHMFHys45/lGGPQ4a7ks5dH98KxIIEgCORV8uNEYPATYfQFDszKtsx+M3QPK0ZiF69mGI3x37FPbvFg6hHevmAWs4uTSohn4MpaSkUtv8CJyAz1gJteQjJu+/8IBALBHCJyDb9AIBBEKJEZ4xcIBIIIRhh+gUAgiDCE4RcIBIIIQxh+gUAgiDCE4RcIBIIIY1bW8asSjEFrsiYQAC+cfoufJsPfrr/DTyr6Qzt5yUkaN8AHa0s5YzuoqoNZ5O6nekXe0hJEoXt9Ohe3ZtjLnj3M5dyawlf5ybDhs1So8p080I6f5veUV0ndS2ncCsNT1SHx+OcdO8HSs9t9U9ISCKbJC6ffouXKs/wo3Avxl7xK6jYkYf3ytxqj74aR+1hhUi0Cvxnp4dnqWtZX1/Lhbc/D3r0sj1l/oUte02yju01ef3UDNwPdgNXT99RymE8GdWS/dJJdAZ5yKvzz+F3EykPT48amvTsLcWnUNoeaswWNPaW0FGk7nd3m/byTvBPkad/Z/VLQ53BlFydfykY3+AFrXQTSLQw/gGWSIhrjrvup4qGPeBTMCeLuwG+mWKPHa5tpTON7Ujjz4psYLr3CxkuV9IewdbbPHv9jB163iZV3Fqs/PSwQnr1HMk+bKOQ9juQlyD9vfMHD5M0cOn003Eubsfyo6jAtRYvou/wSeXnqz5/JnAuevRtyD/+YJAb44MVJfX0ZRVxm7ojDyAZzqjEPZojAz7SZ9Hv6jMOnb2CVsvlfh0OnlO2jx6/KFDY4tTdoYvg55aVLS4Qs0uqy7EO1bZl37GNpQQzDJw/yqFCO38s47iDU2L6K2/YKOdtJKU3lgfO53LWBdtmxuJ93ehxlW8tm7GdzlV7s2J3g0KaZ5i20FZsoTF5GJji+F0oe389/bkqh97cv8Nfl5/i3eOX4eBdvX6zmjw6Df8YbL6zB/jXc5n+/8yoXbOfJ4O7n2yn/s+s0P/jhO7y4+Bv7+ClZxU9XzIf+3/G8g47xNZ7foLzMf5aPyjOZZ3svk4qWTGwNssc6qNpwkU9B2Tks5Ms3KrldLMfv1WvQ7iDU2L5K3+WXnOZX502mx/lc2vlUXHYs7ueFXWxarps0xPPu5VpHEfjqWg8jp4dze2xtS+xg4ZwP8GdOl/bezrH5JSupz4/i5oUGhldq5zXzYbVv4vYurbYBnG5YXn1PLYf5ZGMjG5dvYhefefjuVdW9Aae8j2/4F+qJifOsqtV6jr7Wc4BisGOm6r8vEV96QpY/LG5CbZGcfHa77XO2EI9yU/GMfC5r+9t0vtyL2ss/7dgdextmxejbbx5Kv3+fBOMVo+8QtjnKtiu1xDVv4Y5X5woX32bppnOk/uk/+FnDdVQD/2LBz/hjw2/kIYph50//wc/+cB2ArQXn+LcXXoN3XuXCN//FXTJ4ImYFcN39NOMPGfJ2aY/r+RE4GlOV5ov8pPkioBjsx90YXgfms7z8LZb3/468vGtAMm9ceYGfXnmWPuVzthCPclPxjHyu9OvvkLe7H1jFL1v+lYrTI3y6+5o8RDH69puHPCbF3Q2iJIMkrNxoC82GXzZgZj6sbpCNlD6di1sLuEiwjL+B4/tXkmjp4ni1EspR5qxfKBvsgfsWWLSQJJgiHKUmUDXrV85fX+IcKpI1oJfdbmN9tdn22XUl6Qx4FfbShKLU9TtpTvvKma4BNiYmkVECuGuql/cMaRLAJGO8wMdQTxN32y0wP4u0uhOkBEhZSzbUarfMXixfW2B+jG+hI1ODpuKniYcmbDcqgHmLjTDezl3bjkG9plSkHJezTU6+gWhgqFMbqz/A+Q1TGf0S4h4Hxu7yf72aMJfKS400Nnr4uVSJT5vG4av8zz+oBvs39AwDUd/lB8qRrcsz+PZ4F2f/YDfqFxquYmIRz/xwBWDi4bjmfE++xm9eeIcDj8u/Ghd8G8b+y2kHMRnXeP/6OERlUtHyFh9VJU/9kWnwt+vvkKcaZvq5dmscohaS4svJ+n+nqfi5Rkc/thsVwAtLF8FYB+/bdgzqNSWzKt/xVLsyksByi9+HosJDkXYcbNZ4vSM9/LLDgi4zg51BmDInL4NEzHyoNbbKnCzKcKPYJvFqyRYu5ikevX4hOpS4+ZIMpWqmzdGzbjaDlMH6JY5nsnY0aHYCsgAPknyDmTbqnB8FIUdS08UAqmCOG1p+zy0LwABdAei26rPHP3H0IJ2ql6wqa/nkLdv5xx3H0kx5Dt9w7bWvJZVvxXh67x6PvP1Wm808KAdjkYltJHDeOSzggbiqUrKj4OH133u5KwiO5q5p4DeTvPsz0uPh73/6wslwy8Y+YUEC8Bv+OvZzli5IAK7zg5jHgW+T+j9WwDfwvSjAy3D0pxWVfKp6ySteoKUF9+EUL/i/f3UszZTn8I2+zmuTvJvMosc9vXef2w5azLkYYoFRc0ASfIn5W6jPd/OG4si70yMGD/q/AUHi6SQJLEOyxKV2zp4hns/MIFqvzq+gN/AvEuiSDOS0OBrbnakGwCzfBLR0mxjMN6CPldAKFo+MOu5gWlsaaPXyBrszVS7J/DwoOYZ+7lsg6fFk3CulBfb/eT/r+JsYLm5iGDnZm5aVRVpdqvfShSGnl9HPh4gvyOKJHedsoR45b9HqQ1XSAc7n9bPmSgXZRSYOFYG7GL+WuKpudq+QoP89TlTMgobpj3+XJ4BvL/45v1n8c9f3FYM+9PDvsOi7/IAV/HARdP7ptnIjMAHw94cmHya/xvN5soH9UdVhKlZkUtGSzKo3KikPuJB9IOmnvPk2LUWZ/HTPRT5VQj1y3uKPQa0Ycq2jdwxJJC2UAIl1+7ewzuXTQYzxT1J6qo+VYBRQbjw56Ubo6GIw08jTesXwK9rISZrX7tAtjCKo1zHLCdgDXBNHD9KpxN7jC1cz2jqZxx1+HouTXf5Ym24vcn7hZV/XXcPVDTVcBcivZW/5U2SXdwNujP+ea7LRH/uC0z6VcqqJHg9vW27wZqBLw9T4/Z/+QxMO8sD8BRhJYAF9NHwNqZvS2AosmA93703x2Sn4tKKST5XY+/LiVdA8mccdfn70vYUApBS9RUuRcrD/d5pQU3iQY+ljPic4g8HIqEWpeY9C3iHAXz7qYXhhBqvSJXKIAu5P61xzp9IpOITkyd2JUQskxHhOBIcc2bsP2pO/zVs4gWz8Y1MAreHfc41DRcmy0Z8yB+CJ4IR6Jkcb0vFsvP947xteBHgyjYSxW/zxGxM/HP856U/eAv7Ow9HgrbDvm3FIlmP1voZuAovs3U/vyd/PMI++QnasgVDIogcvpOMJVdg+gZ2YHW42DmEnPYBEdLoBPUP8cgRae82sW24gSePev9trZl2+shPQrn9JAolYuNkTeG/fbeJ5SQbLJFyqerwnmYUSWP/s+e9E1k8OjKqab8ndnO2kHFvtcnheYRY6LAx/7Og1T9y5Bxj5ToCSwP5j4tE46GITph46HfZcY29VicOhuNzFLMDCaJ/jOP+Nfri4ztH/cxvi1/CfP1zhedjoQ/7OIv7t6UVKzuA6f7j9dxKeXkMC3/DXb7yYMv9ZPjq9yuXwC8WZzGOcL+scveZP/3ofWMTaACWB/cfE/TGY9/j0/s7OdA2AlMYzeUFeFkB3FzctEsu2rgxKItcdrS1dDGJgXZGmNYI+neczJawdXQ43A32SEQbMsoHtNjEoZbAqCXuoSF3/T9Kx12IYOJ5vgNtdvBaEm1lrzxBWDKyyJZvTuZgfhTUQ95iSDJKAO//l6Za/i4xE+VXSj3ws3tDgm8ffeo4+4z6W1hU4Hh9v51axm+Tur3/BrbjXSVOTwOpYrxLBSiJZc0RnC9N4W3ffy+iv2okuLXC9Bize5yhOreL9qm4OtVRoDvbzcd4qTW1+CWvyFYMU9RS7W5xi3bPhCd4/v8rPRvfzn5uc4/x/p/O3L3D0G2whoQRu06PU8v/x6z6eW5zBt70t5Wy+yE9SSmlp+VfH42MdVOW5Se6eOknV9w5ToSaB1bFeJYKVRLLmiD1M4+0Tw/2Un+rgo/J/db0GxvnSOUdR08XAhiTSVuZCS7B9fguv1dTKJZ3OcX5NLbxLnTwZlO3PoAxt/b1SpqkZZU8ua+vlzZRVt8kll/vtYx3yEcrDTomSxKAtIWvmq9uQuEjSeNYWXqtp4NWSAtt6UNa03odSVJfafMm+Rtv6Rnp4tnkh9fkF1Geq19YARe7yJN4hV3Td4LcePfkz/PbLH/PKch1IC/GUAp4ukSm9qD5c5hLTl58diJ8fmtYTgjmO+nCZS0xffnZgeZTrjST3cB2vLIcbYWjcJQgTeZXUvZTNnalCOMo43eAHrJ3Ok92TEJltmY0x6HBX8tnLo3vhWJBgTpKykHm4K/ns57aHkNdnlZ8wgI7s3f5v5wWzgVwqd2ejm9Tbl9m1MRsdVm584O9zu5Fq+IfuYQViFzvlKXbsk1s8mHqEty/wn777/A1IWeqUp9hTKrd46P+zm7DRGUrfknu3vPJ2qHs2CkLNrreVNgyTVOHlHq6jsbGRjbE3eHNtYHaCkRnqATe9hGTc9v8RCHzFpZeQjNv+P1rc9uMXzCnC2I8/cg2/QCAQRCiRGeoRCASCCEYYfoFAIIgwhOEXCASCCEMYfoFAIIgwhOEXCASCCEMYfoFAIIgwQtKdM9Co2rtB664Zgag9WeT+K1FK7xULNy80BKXhlSy5l2F/jsLiLJensGQl9fmapl7Omqpeocr1KdelV87taW6BYI4SEsM/Pc1dwcxhjAcWQBpzVTgKFCM9PFvdAygNsqI9jOtuY303BErb1HEN97FiQDeJOIhAMBfxz/ArguV2QtPczCa6PsuwqW5pmSFdOeX+7JIiUedG4UXx0Ec8KjvNBq/ZwvADWKbe0Fw0XgWCyMBnwy9LLUpOLQ5WE392OxPCs3fLnYolHNEeyK9lb/lmDp1mRhh/O4qBxLO03ZxAaQGsF2pNggjDR8Ov6tM2OPW1aWL4OeWlSy+cLNLqsuxDtf34d+xjaUEMwycP8qhQjt/LOO4g1Ni+itu+OjnbSSlN5YHzudz1/3fZsbifd3ocZVvLZuxnm1xzF4DmLbQVmyh83EAchFeYxRZSkXn3cq1/knwBjc1PD+ee6vZ+8XYcr8tMWXWtx/PJikdW0SJZMOfwL9QTE+dZTrH1HH2t54Dpxvgl4ktPyLq3xU2ovfGTz263fc4W4lFuKp6Rz2Vtf5vOl3tRRVzSjt2x999XjL795qEIvXgtEAM2o+8QtjnKtiu1xDXPNqUt/5ETxXDzQq2SGJaFOuqLgmX8FSEQSxfHq5Vwkz6di1sLqF/o65yq4pEuRMIoAkHo8LGcs4m77RaYn0Va3QlSAiSpKBtqtUd+L5avLTBf1ur1GlODpuKniYcmbDcqgHmLjTDezl3bjkG9plSkHJezTU6+gWhgqFMbrjnA+ankFfdcozAZhry+OeRSeamRxkYPP5fC2cvdwPpMCWtHq6YayExZsxkWZfBqEOLqOXkZJGLmQ22OYaSHX3ZY/JjzDF2DAFZutQmjL5hb+OzxTxw9SKfqJauSij55y3b+ccexNFOewzdcRVa0pPKtGE/v3eORtxnKZjMPysFYZGIbCZyfrN2uqrur8PB61eTj3RIOsXUZu6SeE2pExZPYtVJBEx1wcW+Jp5MksAy55CNae4Z4PjPD5znPvLhWtEQWzEn8LOdsYri4iWHUZG8WaXWp3mvWhpxeRj8fIr4giyd2nLOFeuS8RasPVUkHOJ/Xz5orFWQXmThUBB5j/KdWccRm6EtYc6WCQy2bnfR5Zy6DHqt6ZHJiowCJZVu3UB/KhU1SkqmPlbDfmQQCQcDq+CeOHqRTib3HF65mtHUyjzv8PBYnu/yxNsF25PzCy76uu4arG2q4Ckq1zlNkl3cDkyV4a7h66hlSyp9i8R7omLbnn0vlpVfIdlN1CYDlBm9OougTTOSyUIL34JcPjIwKoy8QaAnJA1wToxZIiPGcCA45sncftCd/m7dwAtn4x6YAk1X2+ET4Qj1TErSQjicsfD5gYVlmAjsxO1Qi5aQb0WHmq26PH54UWfhch/XLNymunKH/3gKBD/iW3M3ZTsqx1S6H5xVmocPC8MeOXvPEnXuAke8EKAnsPyYejYMuNmHqodNhzzX2VpU4HIrLXcwCLIz2TfbBo2wrf4oFY1/Q7HWcf4Yy0sO125CYXxCURK47Wlu6GMTAuiJN+ag+neczJawdXT6WpebyzJNyMbJu+SaE+q1gLuGbx996jj7jPpbWFTgeH2/nVrGb5O6vf8GtuNdJU5PA6livEsFKIllzRGcL03hbd9/L6K/aiS4tcL0GLN7nKE6t4v2qbg61VGgO9rvE7TNPmyhMdvzo0OUETcx/bvDu5VoG8gooc47za3riqL2B7GRQtj+DMhzr751r85FWUr9ffmnPN5gpq26TS0b324e65iO84TMOf7qJxg1JQByGPEDU8gvmCJGpuas+XOYS05efHYifH5rWE4KZzi5ONm4kKYw5E4EgGERmW2ZjDDrclXz28uheOBYkmInkHv4xScDAp8LoC+YWs7Its98M3cOKkdjFqxlGY/x37JNbPJh6hLcfyZScVEI8A3ywtlTU8gvmHJEZ6gE3vYRk3Pb/EQgEgjlE5Bp+gUAgiFAiM8YvEAgEEYww/AKBQBBhCMMvEAgEEYYw/AKBQBBhCMMvEAgEEYYw/AKBQBBhzMoHuFTt3aB114xA1N45cp+cKFnKEEv42yv7rN2r6AQ80I5XjknKdemVc2t6CAkEkUBIPP55x06w9Ox23yQUBWFgjAcW+b/D4e6p393G+upa1lc3cDPQbfVH7mOFSUVcBIK5iH8evyJYbic0zc1souuzGUWsZQFyh07v5RcDiyygIimiJc4KL6rKlgfPWJ/Oxa0ZjPjVDTMUWBh+AMsk5YYWorbRAsFMw2fDL0stSk4tDlYTf3Y7E37o7kYGJazZIxv9mYliILmv6Ngqv0dP/pkH4d4deMuIhRFAf38s3CsRCEKKj4Zf1adtcOpr08Twc8pLl144WaTVZdmHavvx79jH0oIYhk8e5FGhHL+XcdxBqLF9Fbd9dXK2k1KaygPnc7nr/++yY3E/7/Q4yraWzdjP5kFzF2DPZrKjLNy4/CdSip7yapag0d3Geo23/u7lWh8FTGRc+u07x+aXrKQ+P4qbFxoYXqntuW/mw+o2n+Z26d0P8MDxV8frMlNWXevxfLvebmRjopUbbxVzWPTiF8wh/Av1xMR5llNsPUdf6zlAMdgxUwmvSMSXnpB1b4ubUHvjJ5/dbvucLcSj3FQ8I5/L2v42nS/3ooq4pB27Y++/rxh9+81DEXrxWiAGbEa//z2O7D5gP3allrjmLdxxHluUzMPrVVzte4YUr+YJHwP3LbBoIUkwRTxcTaCa+bC6QTGyBlkkpcQ5VCSLsi+73cb6arPts+tK0hnwKtmqCUVVq59zFIH3nl1kJALoSFuZCy2iMbNg7uBjcreJu+0WmJ9FWt0JUgIkqSgbarVNci+Wry0wP8a3pLCpQVPx08RDE7YbFcC8xUYYb+eubcegXlMqUo6Xc+UbiAaGOg9oDh7g/AZnow+ZpzdjHPuC9ytqvJxESy6VlxppbPTwc6mSXD/OPjUSr5Zs4WKe4tHrF6JTE8FLMpSqmTZHz7rZDFIG65c4nsna0aDZCcj6uUjyDWbaqHN+FMjKnDN0DQJYudUmjL5gbuGzxz9x9CCdqpesSir65C3b+ccdx9JMeQ7fcBVZ0ZLKt2I8vXePR95aj2YzD8rBWGRiG5MkavNrWZkMQ5ddbwjeEXqxdTn5q6A38C8S6JIM5LQ4GtudqQbA7FoN1G1iMN+APlYC7OU5cjJZM09LA61ehlV2psolmZ8HOMdw5sW1ohe/YE7iZzlnE8PFe+ks3sst2w7gdWK99ZhDTi+jnw/B/Cye2KEeU/MWvoiwHOB8XhU3xmTjf6jFxKGWbtbka8coCd3+98JeweM7UcTrISfdCB1dDEpGnlYrYyxqItjptRO6hVHBX6ZAIJiUgD3ANXH0IJ1K7D2+cDWjrZN53OHnsTjZ5Y+1CbYj5xde9nXdNVzdUMNVsJVqZpd3A3KCN66qlOyofj7ecGCK80yHXCovvUK2c9WlSjA0YkfuYyUKkHg6Cf7yUQ/DC48wiXYAABB1SURBVDNYlS6RQxRwf1qnsYoKGoEg7ITkyd2JUQskxHhOBIcc2bsP2pO/zVs4gWz8Y1OA5hIy0yRAorDFRKHT8AVFJg4VeVPPH/pQj4xEdLoBPUP8cgRae82sW24gSePev9trZl2+kaf1PbRqQy9LEuQngXsC/RSWh8TzkgyWSbhU9XhD7uE6Xlmuw/rlmxRXiji/YO7gW6gnZzspx1a7HJ5XmIUOC8MfO3rNE3fuAUa+E6AksP+YeDQOutiEqYdOhz3X2FtV4nAoLncxC7Aw2gfybiCBI3lOP298wUNkg38kL/wPcU0HfZIRBsyyge02MShlsCoJ+9Ov3V3ctEgs+0k69oifgeP5BrjdFZT2D609Q1gxsMqWbE7nYn4UVr/uMbk886RcjKxbvoldfq9SIJg5+Obxt56jz7iPpXUFjsfH27lV7Ca5++tfcCvuddLUJLA61qtEsJJI1hzR2cI03tbd9zL6q3aiSwtcrwELwycPMupNgvfUKt6v6uZQS4XmYD8f562iw4vTzGiUh50SJYlBW0LWzFe3IXGRpPGsLbxW08CrJQWU7c+wJYStHQ2sb/HeErvU5ksrqd8vvxxUnxQe6eHZ5oXU5xdQnymv68PqBijawjrvr1ThMw5/ukkRXY/DkAeIWn7BHCEyNXfVh8tcYvryswPx80PTekIw09nFycaNJAUjZyIQhJHIbMtsjEGHu5LPXh7dC8eCBDOR3MM/JgkY+FQYfcHcYla2ZfaboXtYMRK7eDXDaIz/jn1yiwefSjoFc4aSk0qIZ4AP1paKWn7BnCMyQz3gppeQjNv+PwKBQDCHiFzDLxAIBBFKZMb4BQKBIIIRhl8gEAgiDGH4BQKBIMIQhl8gEAgiDGH4BQKBIMKYlXX8qgRj0JqsRSCqVKK1o4FnW6I4vn+l3FTtQkNQ+uuoAu22clqLByH3JSupzzfYf3eWcPQKVR1MuS69cm5Pc4cS9Tpvt7H+8piyTk1binAx3e/JDTuLtrAu2nF8yP/OBG4JieGfnvSiYOYwxgMLII25CqoEipEenq3uAVQD4WGcTQvYXylFd2u4jxUDOrXB3IxBEbeXZoCA/XS/J58Iwd+ZwC3+GX4XsfLQ9Lixae/OMuKqutm9wk0T/bEvOO1GpjGUyApbkqKI5WaNiuc34uKBavRuw+01T4lqUBVDo5/yA6FDuQnhQa9AblbnSYhe1jTWdzTwrA+N8ELJlH9ngpDgs+F/7MDrpGVJTk+6rib+7HYmhGc/CbOha6diIPGspDUnUDqO6megOIysMWD3hOXfJ/+Ms4zlzCdC/s5mID4aflWmsMGpvUETw88pL11aImSRVpdlH6pty7xjH0sLYhg+eZBHhXL8XsZxB6HG9lXctlfI2U5KaSoPnM/lrg20y47F/bzT4yjbWjZjP5uFG2/I6luzAltIRebdy7VuPEsvCGhsfno4t3C2uvGAHa/LTFl1rd/zyoItd/zr66MJqYBv2sMOOMfmcd4taHYJoxkO35WveQU1fu+A873Im78zpWeSEMIJPP6FemLiPKtqtZ6jr/UcMN0Yv0R86QlZ/rC4CbVFcvLZ7bbP2UI8yk3FM/K5rO1v0/lyL2ov/7Rjd+xtmBWjb795KP3+fRKMV4x+/3sc2X3AfuxKLXHN4Q3hhAPZAMDNC7VKwk42MvVFwTL+8vkTLV0cr1bCTfp0Lm4toH5h8G84oUAOkciax0wRD1cNsNaA7yzawrr9BcQ7JVF1mQXUY+bDatkA5+QVUJZfwKsj3iVb7aGoBpsh9zcnsCsjSV7jk8+Qy2eiQ2oA8bGcs4m7NnH1E6QESFlLNtRqt8xeLF9bYL4s2eg1pgZNxU8TD03YblQA8xYbYbydu7Ydg3pNqUjeisXnG4gGhjq1eroHOO82bp9MYYsqyG7i0JVa4rycTtbcbaSx0cPPpUpyvT5noDCwPlPC2tGqMRxmyprNsCiDV4MQV8/JyyARMx9qcwwjPfyywxK0OcPNzqIt1BcpXrpeQo+aCFb//RscvPZ3L7cxiMSylQbHE1m6OK7ZCchqZhLR3vyb6dNZtQgGm93lH3znTJccALL++ffC6AcYnz3+iaMH6VS9ZFVZyydv2c4/7jiWZspz+IZrr30tqXwrxtN793jkbYay2cyDcjAWmdiGZwnFOxVLOOJwRN4p7G655mXcP1yau5CYv4X6fDdvqFt6T9q6SvIyehoeq3dIPJ0kgWXIJU7c2jPE85kZQZgzDNjE7gEMfH8RQAI7MTsa2yUJJIJGJU1FUUuLlshBo03sXNHkFHKaDjnpRnSY+SrQZac1paytCfA5BYDf5ZxNDBc3MYya7M0irS7Ve+nCkNPL6OdDxBdk8cSOc7ZQj5y3aPWhKukA5/P6WXOlgmxFOH16Mf4DnL+8jENFySzeAx2zQHPXNf7rWGaZExsFSCzbuoX6UC5skpJMfayEa7DZHxRlLodjSWxsbGSj8ltw4tKKJ65PIPF2FzejM/j+EpSbmrZSaZIyUMlJlF4QkQSsjn/i6EE6ldh7fOFqRlsn87jDz2Nxsssfa9PtRc4vvOzrumu4uqGGqwD5tewtf4rs8m5gCuPfd5eHJBP9vRJguu5NLpWXXiHbUzVcGKUC5Vg0M+qBnMBXu5yhdK09jRuQ5O5UKBVIADtTDQz2tvF5rJGyVAOw0EVXwiMWUUEjCNEDXBOjFkiI8ZwIDjmydx+0J3+bt3AC2fjHpgCTGP643MUswMKNz7zZ04Yv1DMlQQvpeMLC5wMWlmW6hj2CFoIII/rYdFhk5qvL0Kof4vmtCezU/gl3mxjMX8m/pEswor3hyeEha4c54N6+28SzEvf3a6OVV0ndS9nohOZxwPEtuZuznZRjq10OzyvMQoeF4Y8dveaJO/cAI98JUBLYf0w8GgddbMLUQ6fDnmvsrSpxOKQa9NG+yT+3e4XEw+snZ0/Z51SM9HDtNiTmF4Qsqdra0sUgBtYVaRKX+nSez5SwdnQFNOEYdpKMJN42ydc0YuYvFgOrlkdpPHkz9R0WdJk5Dv/+O4tWkoiZa8F4wKvb5JQ4NnB8awZY/Jsrd2WavJORstlUMtVogTf45vG3nqPPuI+ldQWOx8fbuVXsJrn7619wK+510tQksDrWq0SwkkjWHNHZwjTe1t33MvqrdqJLC1yvAYv3OYpTq3i/qptDLRWag64PamWeNlGY7DjXjTcS5o7RV3j3ci0DeQWUOcf5NX1eXGu+Myjbn0EZjvX3zrX5SCup3y+/tOcbzJRVt8klo/vtQ8Pe5yagyO0NEiUJ64D6wJm625EcPOvWlgbA6d9fW+rqBdP7nsyUXeji4lb139/CzQu11KcXUJbk9rTT4rPKT9ik5FLivpsLwucPGJEpvag+XOYS05efHYifH5rWEwKBYHJ2vd3IxkQrN94q5rA/D7QJHIjMtszGGHS4K/ns5dG9cCxIIBC4kFfJjxOBwU+E0Q8ws7Its98M3cOKkdjFqxlGY/x37JNbPJh6hLcvEIQNe7nswJW1lIpa/oATmaEecNNLSMZt/x+BQCCYQ0Su4RcIBIIIJTJj/AKBQBDBCMMvEAgEEYYw/AKBQBBhCMMvEAgEEYYw/AKBQBBhCMMvEAgEEcasfIBL1d4NWndNgUAgmMOExOOfd+wES89u901CUSAQCAQBxT+PXxEstxOa5mY20fXZiiLUskD9fewLTrvV551ZxFV1s3uFk/qLg8D8bEKWvTQCD69XcaJC9AUQRA4+G35ZalFyanGwmviz25nwQ3d3riO3Zp6d7ZhdNIPza9lbvplDp5l1xj/ztGz0BYJIxEfDr+rTNjj1tWli+DnlpUsvnCzS6rLsQ7X9+HfsY2lBDMMnD/KoUI7fyzjuINTYvorbvjo520kpTeWB87nc9f932bG4n3d62D1IGTeau3uuKUZ/Ki3e8OCsFzClJ9y8hbZiE4WPG4gDH3csiozk6AesfdE/4cJprz+/lpXJMHT5PSjaTLSH84mWwIK5in+hnpg4z3KKrefoaz0HKAY7ZirhFYn40hOy7m1xE2pv/OSz222fs4V4lJuKZ+RzWdvfpvPlXlQRl7Rjd+z99xWjb795KEIvXgvEgM3oO4Q9jrLtSi1xzWoIp4Q1+cnQ/94MNvqO4jGZp7tZk18zI9frzPTXX8KaPU+xoP89TpyCbUWezriLjEQAHWkrc6FFiIAI5g4+Gv4m7rbnEJsle/GBqq5xPE8vlq8tkOWjVq+pQXOuJh6aCojV3KjmLTbCeDt3bTsG9ZpSkXLwToEr30A0MNSpDXcc4PwG7aBkYqPg4S1Yc8VEdpT9naHLCZw/5c3FBVpsvYS4x4H+mw6KYR27l0z+sT3XKEyGocvhzk9Mf/1xVaVkR/Xz8YYDwNFJznmGrsGNJCVaudUmjL5gbuGzxz9x9CCdqpesSir65C3b+ccdx5uHPIdvuIqsaEnlWzGe3rvHI2/16ZrNPCgHY5GJbXgw4srNYcGKNfBGAkcULzSuqpvdk33OLYEWW6/hzjcVkDyNeP2eaxwqssdTHl6v8vKmFQymu/6j5Csaxx0eRmg58+Ja/As+CQQzEz/LOZsYLt5LZ/FebrVbYH4WaXWvE5sTmMUFj15GPx+C+Vk8sUM9puYtfBFhOcD5vCpujMnG/1CLiUMt3azJdx3pLKx+p+Kk/Lmlk3mfwadjdwKnr1tk49kiX4OzgDwAp1ZxJC9B+amiL62CQy3XyPRmspKTNDY2Kj/KziVxo+ZYHZV5gV9/5unNGMe+4H1RwSOIcAL2ANfE0YN0KrH3+MLVjLZO5nGHn8fiZJc/1ibYjpxfeNnXdddwdUMNV8FWrpld3g0oiVxlV+ApkegdgQ71yNirdkpYc6WC7BUV7K1ikgRvDVdPPUNK+VMs3gMd0/X8a0pZaztl4JK7k67fllgPd1hKIAg/IXlyd2LUAgk+xuqDguzdB+3J3+YtnEA2/rEpQDNAP6NjYHw82WmwGvvv92KCQId6nKnh6gbgSgXZLuudDbiuP3Op/N/schPZ5U7DV1RwqKXCpQoo93AdryzXYf3yTYorRZxfMHfwLdSTs52UY6tdDs8rzEKHheGPHb3miTv3ACPfOZDq03SBx8SjcdDFJkw9dDrsueYSVojLXcwCLIz2qUdquNrcD8mb2bbHPk6uJ++nLazhB6UCSXso/xlSouDhN5PdkI6yrfwpFox9QXNY4/xTr79jd4ImRKX+vMcQcp7iSF6C084ml2eelIuRdcs3sStUlyIQhADfPP7Wc/QZ97G0rsDx+Hg7t4rdJHd//Qtuxb1OmpoEVsd6lQhWEsmaIzpbmMbbuvteRn/VTnRpges1YGH45EHvqnpOreL9qm4OtVRoDjqWFqrjjnCNQ0UmDqllhGNfcDov3OGHA5w/VcveFpP9aWJcq42c6+TVMUfCntyd3vq94zMOf7qJxg1JQByGPEDU8gvmCJGpuas+XOYS05efHYifH5rWE4KZzi5ONm4kyceciUAwU4nMtszGGHS4K/ns5dG9cCxIMBPJPfxjkoCBT4XRF8wtZmVbZr8ZuocVI7GLVzOMxvjv2Ce3ePCppFMwZyg5qYR4Bvhgbamo5RfMOSIz1ANuegnJuO3/IxAIBHOIyDX8AoFAEKH8f/o/HhJWibYQAAAAAElFTkSuQmCC;" vertex="1" parent="1">
          <mxGeometry x="18" y="230" width="382" height="137" as="geometry" />
        </mxCell>
      </root>
    </mxGraphModel>
  </diagram>
</mxfile>
